<?xml version="1.0" encoding="UTF-8"?>
<svg version="1.1" xmlns="http://www.w3.org/2000/svg" width="500" height="500">
<path d="M0 0 C1.44953535 -0.00644793 2.89906948 -0.01317767 4.34860229 -0.02017212 C7.37598682 -0.03208182 10.40325781 -0.03585971 13.43066406 -0.03466797 C17.26293811 -0.0344656 21.09446376 -0.06170989 24.92656136 -0.09621239 C27.91935398 -0.11872855 30.91197383 -0.12249801 33.90484238 -0.12144852 C35.31509848 -0.12376978 36.72536202 -0.13239057 38.13553238 -0.14811325 C51.27826674 -0.28089418 64.46591785 1.7181438 76.1796875 8.0234375 C76.83316162 8.36375 77.48663574 8.7040625 78.15991211 9.0546875 C87.76451628 14.21278079 96.31387256 20.60190112 102.9296875 29.3359375 C103.31898438 29.84286133 103.70828125 30.34978516 104.109375 30.87207031 C115.40000739 45.67819506 122.93776769 61.94991705 123.12255859 80.8984375 C123.13482483 81.99720215 123.13482483 81.99720215 123.14733887 83.11816406 C123.17200153 85.52408053 123.1886536 87.92993907 123.203125 90.3359375 C123.20844868 91.1614209 123.21377235 91.9869043 123.21925735 92.83740234 C123.24589751 97.20148792 123.26530686 101.5655457 123.27978516 105.9296875 C123.29315178 109.53411072 123.32106686 113.1379715 123.36181641 116.7421875 C123.41114349 121.10636421 123.43590456 125.4700291 123.44301224 129.83447266 C123.44971746 131.49305829 123.4649207 133.1516328 123.48890305 134.81005859 C123.52058031 137.13179038 123.52058954 139.45154571 123.51318359 141.7734375 C123.52127045 143.09214844 123.5293573 144.41085937 123.53768921 145.76953125 C122.73831768 150.4584714 121.30527183 152.03826412 117.9296875 155.3359375 C114.32212624 156.53845792 111.03058687 156.48078338 107.27554321 156.47637939 C106.48838216 156.47935052 105.70122111 156.48232164 104.89020669 156.4853828 C102.24401384 156.49407687 99.59786618 156.49557863 96.95166016 156.49707031 C95.0578756 156.50169794 93.16409198 156.50672252 91.27030945 156.51211548 C86.11948956 156.52524574 80.9686827 156.53168551 75.81784868 156.53612614 C72.60143768 156.5390555 69.38503026 156.54316002 66.16862106 156.54763031 C56.10980134 156.56130611 46.05098977 156.57097269 35.99216139 156.5748322 C24.37192605 156.57931506 12.75180821 156.59687323 1.13160861 156.6258328 C-7.84510362 156.64742964 -16.82178274 156.65753539 -25.79852068 156.65887332 C-31.16257467 156.65992267 -36.52651821 156.66585813 -41.89054489 156.68369293 C-46.93514737 156.70013935 -51.97955596 156.70234582 -57.02417564 156.69355392 C-58.87652416 156.69278174 -60.72888295 156.69715003 -62.58120537 156.70701218 C-65.10843633 156.71967951 -67.63497517 156.71388354 -70.16220093 156.70343018 C-71.26371461 156.71551478 -71.26371461 156.71551478 -72.38748109 156.72784352 C-76.79713837 156.68513492 -79.54394109 156.00688009 -83.0703125 153.3359375 C-86.63971935 149.25661538 -87.19614531 145.89296098 -87.21557617 140.57373047 C-87.22195602 139.3875412 -87.22833588 138.20135193 -87.23490906 136.97921753 C-87.23602188 135.69185699 -87.2371347 134.40449646 -87.23828125 133.078125 C-87.24149939 131.73308274 -87.24486387 130.38804082 -87.24836731 129.04299927 C-87.25436262 126.21339105 -87.25620736 123.38381334 -87.25561523 120.55419922 C-87.25553465 117.68369146 -87.26236309 114.81334556 -87.27612305 111.94287109 C-87.44283104 76.62009812 -84.13214009 48.83729411 -59.6328125 21.62890625 C-43.28308035 5.8591477 -22.13136561 0.02342515 0 0 Z M-3.92578125 41.00390625 C-10.54461361 48.14570808 -11.65334256 55.35099663 -11.41796875 64.9296875 C-10.63613671 72.58988455 -6.95381903 79.33557888 -1.0703125 84.3359375 C7.5557627 89.53042272 14.86946665 91.18889467 24.9296875 90.3359375 C28.20907702 89.40104507 30.99841479 88.06265887 33.9296875 86.3359375 C35.0228125 85.6965625 36.1159375 85.0571875 37.2421875 84.3984375 C43.64100672 79.48771578 47.27062779 73.0163785 48.390625 65.0625 C48.79816616 56.271255 47.11216739 49.50840454 41.9296875 42.3359375 C28.77683493 28.72285621 10.06805857 28.42418077 -3.92578125 41.00390625 Z " fill="#E14041" transform="translate(231.0703125,124.6640625)"/>
<path d="M0 0 C0.79633144 -0.00694553 1.59266288 -0.01389106 2.41312557 -0.02104706 C5.07868643 -0.03932799 7.74335837 -0.02904996 10.40895081 -0.01878357 C12.32111782 -0.02584151 14.23327925 -0.034586 16.14543152 -0.04489136 C21.33761288 -0.06740932 26.52948976 -0.06443993 31.72170138 -0.05556989 C36.05582027 -0.05046277 40.38988181 -0.05775034 44.72399479 -0.06504196 C54.94829536 -0.08204869 65.17244671 -0.07846737 75.39674377 -0.06175232 C85.94590112 -0.04482923 96.49464474 -0.06066649 107.0437569 -0.0929752 C116.10038327 -0.11966241 125.15688078 -0.12694946 134.21354252 -0.11846012 C139.6229181 -0.1135285 145.0320447 -0.11575935 150.44138908 -0.13624763 C155.52803109 -0.15459102 160.6140775 -0.14866227 165.70068741 -0.12404823 C167.56712229 -0.11903613 169.43360244 -0.12254045 171.30000114 -0.13519669 C173.84912395 -0.15111458 176.39628245 -0.13618989 178.9453125 -0.11352539 C179.68315977 -0.12536112 180.42100704 -0.13719685 181.18121332 -0.14939123 C186.86823463 -0.04672907 189.18743158 1.62242163 193.03614807 5.5146637 C194.38257564 8.20751884 194.18563806 10.32270725 194.21315002 13.33790588 C194.23240288 15.17056 194.23240288 15.17056 194.25204468 17.04023743 C194.26021332 18.38066706 194.26765681 19.72110128 194.27442932 21.0615387 C194.27850485 21.73623451 194.28258038 22.41093033 194.2867794 23.10607147 C194.30764247 26.67911472 194.32194153 30.25211958 194.33131409 33.82521057 C194.34236239 37.50845109 194.37674222 41.19108475 194.41648579 44.87411118 C194.44268964 47.71208281 194.45100933 50.5499109 194.45459557 53.38799286 C194.46180991 55.40318414 194.48823578 57.41827716 194.51498413 59.43330383 C194.49598513 67.44950687 194.0418419 71.39144339 188.43849182 77.15919495 C183.46855905 81.12188801 179.94114214 81.66346212 173.77510071 81.66183472 C173.03018631 81.6655114 172.28527192 81.66918809 171.51778436 81.6729762 C169.01445856 81.68401472 166.51117426 81.68785715 164.00782776 81.69166565 C162.2158088 81.69793016 160.42379114 81.70457695 158.6317749 81.71157837 C153.75767557 81.72898875 148.88358604 81.73954019 144.00946331 81.7477839 C140.96456672 81.75293388 137.91967318 81.7590096 134.87477875 81.76529503 C125.34882538 81.78434704 115.82287976 81.79857828 106.296911 81.806907 C95.29924169 81.81668109 84.30177356 81.84300511 73.30417514 81.88340789 C64.80471079 81.91356204 56.30530413 81.9283752 47.80578732 81.93168801 C42.72890631 81.93403923 37.65224022 81.94300915 32.57541656 81.96814919 C27.79833481 81.9914227 23.0216096 81.99566602 18.24448586 81.9853878 C16.49294919 81.98489216 14.74139501 81.99122093 12.98991203 82.00494385 C10.59455844 82.02265866 8.20048503 82.01555956 5.80513 82.00241089 C5.11552272 82.01338013 4.42591543 82.02434938 3.71541095 82.03565103 C-2.95918182 81.94747601 -7.10657305 79.37194257 -11.77635193 74.7021637 C-16.56053388 67.73092713 -16.27141492 60.67754976 -16.26463318 52.4834137 C-16.2689183 51.33352966 -16.27320343 50.18364563 -16.27761841 48.99891663 C-16.28334496 46.57497311 -16.28387436 44.15101242 -16.27952576 41.72706604 C-16.27636253 38.02706033 -16.29985843 34.32785215 -16.32518005 30.62794495 C-16.32745294 28.26726887 -16.32815659 25.90659065 -16.32713318 23.5459137 C-16.33634293 22.44469177 -16.34555267 21.34346985 -16.3550415 20.20887756 C-16.31235499 13.09551641 -16.05843294 7.6693909 -10.84973049 2.35945225 C-7.19500953 0.02318367 -4.20011258 -0.04676825 0 0 Z " fill="#E13F40" transform="translate(159.96385192871094,301.48533630371094)"/>
<path d="M0 0 C2.22055755 0.0031487 4.43976345 -0.02033317 6.66015625 -0.0456543 C19.74427631 -0.10402983 34.14487331 0.63385771 44.26171875 9.94848633 C48.98163251 15.08283154 51.70638886 20.21505933 51.48828125 27.31567383 C49.2590547 27.17075869 47.02990391 27.02467835 44.80078125 26.87817383 C43.55941406 26.79696289 42.31804687 26.71575195 41.0390625 26.63208008 C38.61209899 26.47305692 36.19294878 26.28831644 33.77099609 26.06396484 C23.67619171 25.16526725 13.6145987 25.11991026 3.48828125 25.12817383 C2.58152649 25.12744873 1.67477173 25.12672363 0.74053955 25.12597656 C-11.14189828 25.12702706 -22.87169692 25.38268796 -34.67578125 26.87817383 C-38.36351007 27.29877019 -41.81049458 27.39338982 -45.51171875 27.31567383 C-45.21404404 19.12961917 -41.95280987 13.75676495 -36.19921875 8.00317383 C-24.80616363 0.84939503 -13.16020202 -0.03889289 0 0 Z " fill="#E14B4D" transform="translate(246.51171875,84.684326171875)"/>
<path d="M0 0 C2.93637689 5.87275379 3.12943877 11.05812849 3.19287109 17.5625 C3.20513733 18.66126465 3.20513733 18.66126465 3.21765137 19.78222656 C3.24231403 22.18814303 3.2589661 24.59400157 3.2734375 27 C3.27876118 27.8254834 3.28408485 28.6509668 3.28956985 29.50146484 C3.31621001 33.86555042 3.33561936 38.2296082 3.35009766 42.59375 C3.36346428 46.19817322 3.39137936 49.802034 3.43212891 53.40625 C3.48145599 57.77042671 3.50621706 62.1340916 3.51332474 66.49853516 C3.52002996 68.15712079 3.5352332 69.8156953 3.55921555 71.47412109 C3.59089281 73.79585288 3.59090204 76.11560821 3.58349609 78.4375 C3.59158295 79.75621094 3.5996698 81.07492187 3.60800171 82.43359375 C2.80863018 87.1225339 1.37558433 88.70232662 -2 92 C-5.60756126 93.20252042 -8.89910063 93.14484588 -12.65414429 93.14044189 C-13.44130534 93.14341302 -14.22846639 93.14638414 -15.03948081 93.1494453 C-17.68567366 93.15813937 -20.33182132 93.15964113 -22.97802734 93.16113281 C-24.8718119 93.16576044 -26.76559552 93.17078502 -28.65937805 93.17617798 C-33.81019794 93.18930824 -38.9610048 93.19574801 -44.11183882 93.20018864 C-47.32824982 93.203118 -50.54465724 93.20722252 -53.76106644 93.21169281 C-63.81988616 93.22536861 -73.87869773 93.23503519 -83.93752611 93.2388947 C-95.55776145 93.24337756 -107.17787929 93.26093573 -118.79807889 93.2898953 C-127.77479112 93.31149214 -136.75147024 93.32159789 -145.72820818 93.32293582 C-151.09226217 93.32398517 -156.45620571 93.32992063 -161.82023239 93.34775543 C-166.86483487 93.36420185 -171.90924346 93.36640832 -176.95386314 93.35761642 C-178.80621166 93.35684424 -180.65857045 93.36121253 -182.51089287 93.37107468 C-185.03812383 93.38374201 -187.56466267 93.37794604 -190.09188843 93.36749268 C-191.19340211 93.37957728 -191.19340211 93.37957728 -192.31716859 93.39190602 C-196.72682587 93.34919742 -199.47362859 92.67094259 -203 90 C-206.59946535 85.88632531 -207.1253757 82.50502263 -207.12939453 77.14257812 C-207.13254669 75.93702271 -207.13569885 74.73146729 -207.13894653 73.48937988 C-207.1369223 72.18319702 -207.13489807 70.87701416 -207.1328125 69.53125 C-207.13348673 68.17183413 -207.13445775 66.81241838 -207.13571167 65.45300293 C-207.13718704 62.59821428 -207.1350419 59.74345689 -207.13037109 56.88867188 C-207.12471722 53.25888784 -207.12792599 49.62917847 -207.13394356 45.99939728 C-207.13759073 43.18696552 -207.13639095 40.37455086 -207.13381577 37.56211853 C-207.13283764 35.58214265 -207.13583959 33.60216607 -207.13894653 31.62219238 C-207.12034287 24.35832216 -206.81543916 17.21957169 -206 10 C-205.67 10 -205.34 10 -205 10 C-204.67 35.41 -204.34 60.82 -204 87 C-201.03 87.33 -198.06 87.66 -195 88 C-194.34 88.33 -193.68 88.66 -193 89 C-190.54445085 89.10753023 -188.11650437 89.15488984 -185.6602478 89.15821838 C-184.89491466 89.16315636 -184.12958152 89.16809434 -183.34105647 89.17318195 C-180.76301777 89.1886046 -178.18500407 89.19693043 -175.60693359 89.20532227 C-173.76429523 89.21489705 -171.92165908 89.22490689 -170.07902527 89.23532104 C-165.06485494 89.26241952 -160.05067514 89.28340227 -155.03647184 89.30332303 C-149.80071496 89.32515216 -144.5649874 89.35255585 -139.32925415 89.37937927 C-129.40932434 89.42934781 -119.48937829 89.47427117 -109.56941664 89.51740164 C-98.27815099 89.5667385 -86.98691474 89.62166977 -75.69567752 89.67708123 C-52.46381244 89.79096513 -29.23191916 89.89779018 -6 90 C-6 89.34 -6 88.68 -6 88 C-5.01 88 -4.02 88 -3 88 C-3 87.34 -3 86.68 -3 86 C-2.01 86 -1.02 86 0 86 C0 57.62 0 29.24 0 0 Z " fill="#E98A8C" transform="translate(351,188)"/>
<path d="M0 0 C1.19321552 -0.00913666 1.19321552 -0.00913666 2.41053641 -0.01845789 C5.07906224 -0.03512191 7.74711267 -0.03030728 10.41567993 -0.0255127 C12.32769772 -0.03285109 14.23971108 -0.04143665 16.15171814 -0.05117798 C21.34803852 -0.07342773 26.54420049 -0.0763229 31.74056196 -0.07443047 C36.07710929 -0.07431092 40.41362286 -0.0828688 44.75016081 -0.09120798 C54.98064964 -0.11045481 65.21105687 -0.11332133 75.44155884 -0.10656738 C85.99806692 -0.09992647 96.55422561 -0.12279017 107.11066282 -0.15988111 C116.17150463 -0.19056286 125.23223397 -0.20193976 134.2931267 -0.1980443 C139.70588423 -0.1959751 145.11836995 -0.20148244 150.53107834 -0.22593689 C155.62179042 -0.24817595 160.71193402 -0.24634972 165.80264854 -0.22600937 C167.67070264 -0.22259421 169.53879479 -0.22771013 171.40679741 -0.24199295 C173.95814213 -0.26015398 176.50755186 -0.24746122 179.05883789 -0.22705078 C180.16663198 -0.24582755 180.16663198 -0.24582755 181.29680574 -0.26498365 C186.97027485 -0.16773786 189.27936095 1.5682708 193.15640259 5.39440918 C192.82640259 6.05440918 192.49640259 6.71440918 192.15640259 7.39440918 C191.6540926 6.66424481 191.6540926 6.66424481 191.14163494 5.91932964 C188.13617716 3.6107414 185.03181954 3.97216034 181.39268494 3.99568176 C180.59382895 3.98903494 179.79497297 3.98238811 178.97190922 3.97553986 C176.28628978 3.95683854 173.60111306 3.9595199 170.91543579 3.96203613 C168.99382901 3.95302332 167.072228 3.94269729 165.15063477 3.93115234 C159.92575739 3.90349977 154.70098885 3.89428663 149.47604775 3.88829827 C144.01872178 3.87893605 138.56147779 3.85273447 133.10420227 3.82829285 C122.76639752 3.78456481 112.42860863 3.75605659 102.09073943 3.73296946 C90.32301118 3.70595154 78.55536516 3.66203797 66.78769553 3.61668074 C42.57730908 3.52374418 18.36689684 3.45210475 -5.84359741 3.39440918 C-6.17359741 4.71440918 -6.50359741 6.03440918 -6.84359741 7.39440918 C-9.17693075 7.39440918 -11.51026408 7.39440918 -13.84359741 7.39440918 C-11.0533667 0.65135164 -6.83196536 -0.04899146 0 0 Z " fill="#DF807E" transform="translate(159.84359741210938,301.6055908203125)"/>
<path d="M0 0 C0.33 0 0.66 0 1 0 C1.09284953 7.9801118 1.16384 15.95999636 1.20724869 23.94051552 C1.22808715 27.6465735 1.25633503 31.3522608 1.30175781 35.05810547 C1.34535112 38.63725786 1.36916523 42.21605464 1.37950897 45.79545212 C1.38687635 47.15818247 1.40126338 48.52089427 1.42292023 49.88347244 C1.62390054 63.05735981 1.62390054 63.05735981 -3 68 C-6.63338337 71.7399863 -9.88774341 73.91551204 -15.21594906 74.12863445 C-16.5710282 74.1354513 -17.92614177 74.13670816 -19.28123474 74.13371277 C-20.02826583 74.13597833 -20.77529693 74.13824388 -21.54496533 74.14057809 C-24.05530172 74.1469227 -26.56558419 74.14608843 -29.07592773 74.14526367 C-30.87281362 74.14825485 -32.66969886 74.15165729 -34.46658325 74.15544128 C-39.35288541 74.16428913 -44.23917007 74.16661971 -49.12547946 74.16725707 C-53.20119318 74.16820556 -57.2769028 74.17188313 -61.35261494 74.17542917 C-70.96595438 74.18357653 -80.57928446 74.18601312 -90.19262695 74.18530273 C-100.1179472 74.18470169 -110.04321313 74.19525811 -119.96851963 74.2110464 C-128.48322444 74.22410947 -136.99791147 74.22948716 -145.51262623 74.22884732 C-150.60107745 74.228592 -155.68948041 74.23146242 -160.77792168 74.24202538 C-165.56230665 74.25168576 -170.34659701 74.25179973 -175.13098526 74.24450874 C-176.88860906 74.24346037 -178.64623869 74.24584071 -180.40385246 74.2518692 C-182.7999411 74.25955641 -185.19570036 74.25496619 -187.59178162 74.24723816 C-188.29012743 74.25238172 -188.98847324 74.25752529 -189.70798105 74.26282471 C-193.30953428 74.2370891 -195.93415508 73.96388882 -199 72 C-196.28985792 70.64492896 -194.96392454 71.40553944 -192 72 C-189.49918758 72.08940181 -187.02737346 72.13081337 -184.52726746 72.12025452 C-183.78387235 72.12110894 -183.04047725 72.12196337 -182.27455503 72.12284368 C-179.7887249 72.12448809 -177.30296256 72.11899414 -174.81713867 72.11352539 C-173.03317262 72.11324327 -171.24920646 72.11340174 -169.46524048 72.1139679 C-164.62477167 72.11425489 -159.78432763 72.10837387 -154.94386458 72.10139394 C-149.88431534 72.09514421 -144.82476553 72.09455532 -139.76521301 72.09336853 C-130.1853549 72.09026 -120.60550818 72.08205303 -111.02565509 72.07201904 C-100.11885582 72.06084309 -89.212056 72.05534371 -78.30525243 72.05032361 C-55.87016196 72.03987004 -33.43508162 72.02227982 -11 72 C-11 71.34 -11 70.68 -11 70 C-9.68 70 -8.36 70 -7 70 C-7 68.35 -7 66.7 -7 65 C-6.34 65 -5.68 65 -5 65 C-5.33 63.68 -5.66 62.36 -6 61 C-5.01 60.34 -4.02 59.68 -3 59 C-3 59.99 -3 60.98 -3 62 C-2.34 62 -1.68 62 -1 62 C-0.505 31.31 -0.505 31.31 0 0 Z " fill="#D4797A" transform="translate(353,309)"/>
<path d="M0 0 C2.73902249 2.36551942 3.93170092 4.54857221 5 8 C5.03176354 9.66636396 5.03622333 11.33372702 5 13 C2.77077345 12.85508486 0.54162266 12.70900452 -1.6875 12.5625 C-2.92886719 12.48128906 -4.17023438 12.40007812 -5.44921875 12.31640625 C-7.87618226 12.15738309 -10.29533247 11.97264261 -12.71728516 11.74829102 C-22.81208954 10.84959343 -32.87368255 10.80423643 -43 10.8125 C-43.90675476 10.8117749 -44.81350952 10.8110498 -45.7477417 10.81030273 C-57.63017953 10.81135323 -69.35997817 11.06701414 -81.1640625 12.5625 C-84.85179132 12.98309636 -88.29877583 13.07771599 -92 13 C-92 11.35 -92 9.7 -92 8 C-91.67 9.32 -91.34 10.64 -91 12 C-90.02613846 11.78724426 -89.05227692 11.57448853 -88.04890442 11.35528564 C-78.42729882 9.34601838 -69.23720898 8.57684793 -59.38671875 8.671875 C-57.95620424 8.67494777 -56.52568669 8.67681231 -55.09516907 8.67755127 C-52.12965018 8.68209909 -49.16441126 8.69631091 -46.19897461 8.71875 C-42.42942464 8.74715779 -38.66009169 8.75798195 -34.89044476 8.7624321 C-31.24334255 8.76762151 -27.59629241 8.78210378 -23.94921875 8.796875 C-22.93332955 8.79969608 -22.93332955 8.79969608 -21.89691734 8.80257416 C-13.87696651 8.83138713 -5.97254459 9.10295694 2 10 C1.67 9.0925 1.34 8.185 1 7.25 C0 4 0 4 0 0 Z " fill="#F9C8C7" transform="translate(293,99)"/>
<path d="M0 0 C1.93085953 -0.00855011 1.93085953 -0.00855011 3.90072632 -0.01727295 C6.61888009 -0.02772664 9.3370048 -0.03360537 12.05517578 -0.03710938 C15.49746213 -0.04256979 18.93934814 -0.06656869 22.38150978 -0.09508133 C25.71266327 -0.11846231 29.04376897 -0.12017397 32.375 -0.125 C33.59007233 -0.1373468 34.80514465 -0.1496936 36.05703735 -0.16241455 C46.87539224 -0.13476819 57.53838505 1.41337573 67.4609375 5.890625 C68.44835937 6.32761719 69.43578125 6.76460937 70.453125 7.21484375 C71.15695312 7.54097656 71.86078125 7.86710938 72.5859375 8.203125 C68.83698807 9.45277481 66.43458473 8.95910928 62.5859375 8.203125 C61.5959375 7.543125 60.6059375 6.883125 59.5859375 6.203125 C59.5859375 6.863125 59.5859375 7.523125 59.5859375 8.203125 C57.9359375 8.203125 56.2859375 8.203125 54.5859375 8.203125 C54.5859375 6.553125 54.5859375 4.903125 54.5859375 3.203125 C46.40826741 2.0586472 38.2891766 2.07489349 30.05078125 2.10546875 C28.56148832 2.10733732 27.07219477 2.10875915 25.582901 2.10975647 C21.69168353 2.11354711 17.80050428 2.1233473 13.90930176 2.13446045 C9.92716997 2.14474941 5.94503192 2.14927002 1.96289062 2.15429688 C-5.82944437 2.16497318 -13.62174805 2.18200736 -21.4140625 2.203125 C-21.4140625 1.873125 -21.4140625 1.543125 -21.4140625 1.203125 C-14.26862882 0.1017902 -7.22136966 0.02500774 0 0 Z " fill="#CB4E4E" transform="translate(233.4140625,125.796875)"/>
<path d="M0 0 C0.76183594 0.42539063 1.52367187 0.85078125 2.30859375 1.2890625 C3.88487276 2.17076384 5.44506736 3.08117617 7 4 C7 4.99 7 5.98 7 7 C7.66 7.33 8.32 7.66 9 8 C9.40729228 10.32156597 9.74438677 12.6568787 10 15 C8.27635949 12.75926734 6.77001277 10.59309952 5.375 8.125 C0.20356901 1.32048554 -6.69866203 -1.9043746 -14.95703125 -3.65234375 C-24.5662263 -4.75018503 -31.9921388 -0.92553165 -40 4 C-38.48634141 -0.54097578 -35.10308339 -1.83736399 -31 -4 C-19.55188465 -8.62327735 -10.20688101 -6.02132549 0 0 Z " fill="#FCD4D3" transform="translate(268,161)"/>
<path d="M0 0 C0.99 0 1.98 0 3 0 C3.0291544 3.39581516 3.04685068 6.79159786 3.0625 10.1875 C3.07087891 11.14720703 3.07925781 12.10691406 3.08789062 13.09570312 C3.09111328 14.02705078 3.09433594 14.95839844 3.09765625 15.91796875 C3.10289307 16.77156982 3.10812988 17.6251709 3.11352539 18.50463867 C2.99570521 21.09440226 2.52809304 23.46604094 2 26 C2 26.99 2 27.98 2 29 C0.02 28.67 -1.96 28.34 -4 28 C-2.13709677 22.27822581 -2.13709677 22.27822581 -0.9375 19.84375 C0.35725921 15.91631372 0.21442822 12.29087931 0.125 8.1875 C0.11597656 7.39923828 0.10695313 6.61097656 0.09765625 5.79882812 C0.07422504 3.86575334 0.03835838 1.9328362 0 0 Z " fill="#E0686A" transform="translate(278,176)"/>
<path d="M0 0 C0 3 0 3 -1.5 6.3125 C-4.07684322 12.99503123 -4.31245146 21.03530289 -2.0625 27.83203125 C-0.98682912 30.22155478 -0.98682912 30.22155478 0.22265625 32.328125 C0.47917969 32.87984375 0.73570312 33.4315625 1 34 C0.67 34.66 0.34 35.32 0 36 C-2.46508789 34.40063477 -2.46508789 34.40063477 -5 32 C-5.59936523 29.02319336 -5.59936523 29.02319336 -5.55859375 25.58984375 C-5.55150391 24.35298828 -5.54441406 23.11613281 -5.53710938 21.84179688 C-5.50423828 20.55337891 -5.47136719 19.26496094 -5.4375 17.9375 C-5.43169922 16.64521484 -5.42589844 15.35292969 -5.41992188 14.02148438 C-5.29500033 4.4425005 -5.29500033 4.4425005 -3 1 C-2.01 0.67 -1.02 0.34 0 0 Z " fill="#EB9C9B" transform="translate(224,168)"/>
<path d="M0 0 C7.43499851 6.63254272 11.49952749 17.33028829 13 27 C12.67 26.34 12.34 25.68 12 25 C11.01 25 10.02 25 9 25 C9 22.36 9 19.72 9 17 C8.34 17 7.68 17 7 17 C6.73445313 16.36191406 6.46890625 15.72382813 6.1953125 15.06640625 C5.84210938 14.24011719 5.48890625 13.41382813 5.125 12.5625 C4.60292969 11.32693359 4.60292969 11.32693359 4.0703125 10.06640625 C3.1755063 7.84253285 3.1755063 7.84253285 1 7 C0.59270772 4.67843403 0.25561323 2.3431213 0 0 Z " fill="#E48C8D" transform="translate(338,161)"/>
<path d="M0 0 C2.73902249 2.36551942 3.93170092 4.54857221 5 8 C5 9.65 5 11.3 5 13 C0.05 12.67 -4.9 12.34 -10 12 C-10 11.34 -10 10.68 -10 10 C-12.31 10 -14.62 10 -17 10 C-17 9.67 -17 9.34 -17 9 C-10.73 9.33 -4.46 9.66 2 10 C1.34 8.02 0.68 6.04 0 4 C0 2.68 0 1.36 0 0 Z " fill="#E38F91" transform="translate(293,99)"/>
<path d="M0 0 C0.33 0 0.66 0 1 0 C1.28286734 5.94021418 0.80526217 10.28947322 -1.265625 15.84765625 C-2.30219359 18.8856844 -2.661161 21.8149134 -3 25 C-3.99 24.34 -4.98 23.68 -6 23 C-5.57200914 14.72550999 -2.95555804 7.66700112 0 0 Z " fill="#E48484" transform="translate(152,174)"/>
<path d="M0 0 C0.33 1.32 0.66 2.64 1 4 C0.2575 4.144375 -0.485 4.28875 -1.25 4.4375 C-5.43847648 6.81731618 -6.38452846 10.6138594 -8 15 C-8.66 15 -9.32 15 -10 15 C-10 15.99 -10 16.98 -10 18 C-11.98 18.99 -13.96 19.98 -16 21 C-14.53356958 16.74186246 -12.38826533 13.5279292 -9.6875 9.9375 C-8.92824219 8.91527344 -8.16898438 7.89304688 -7.38671875 6.83984375 C-5.11550094 4.13742911 -2.83210947 2.09024716 0 0 Z " fill="#D9696B" transform="translate(171,149)"/>
<path d="M0 0 C0.33 0.99 0.66 1.98 1 3 C1.66 3 2.32 3 3 3 C2.91837143 5.77537132 2.41385605 7.52212203 0.5859375 9.6328125 C-3.1005665 12.99451439 -5.85355057 14.74895369 -11 15 C-11 14.34 -11 13.68 -11 13 C-9.68 13 -8.36 13 -7 13 C-7 12.34 -7 11.68 -7 11 C-5.68 11 -4.36 11 -3 11 C-3 9.35 -3 7.7 -3 6 C-2.34 6 -1.68 6 -1 6 C-1.20625 5.38125 -1.4125 4.7625 -1.625 4.125 C-1.74875 3.42375 -1.8725 2.7225 -2 2 C-1.34 1.34 -0.68 0.68 0 0 Z " fill="#E07F83" transform="translate(349,368)"/>
<path d="M0 0 C6.81987029 0.43300764 11.91643021 1.90787824 18 5 C14.25105057 6.24964981 11.84864723 5.75598428 8 5 C7.01 4.34 6.02 3.68 5 3 C5 3.66 5 4.32 5 5 C3.35 5 1.7 5 0 5 C0 3.35 0 1.7 0 0 Z " fill="#D54548" transform="translate(288,129)"/>
<path d="M0 0 C0.99 0 1.98 0 3 0 C3 1.32 3 2.64 3 4 C3.66 4 4.32 4 5 4 C5 5.32 5 6.64 5 8 C6.32 8 7.64 8 9 8 C8.67 9.32 8.34 10.64 8 12 C4.5659298 10.61482883 3.29977978 9.34555636 1.75 6 C1.41484375 5.29875 1.0796875 4.5975 0.734375 3.875 C0 2 0 2 0 0 Z " fill="#DD6669" transform="translate(146,368)"/>
<path d="M0 0 C1 3 1 3 0.21484375 4.82421875 C-1.09540287 6.73549593 -2.30849991 8.41101506 -4 10 C-7.3125 10.4375 -7.3125 10.4375 -10 10 C-9.236875 9.4225 -8.47375 8.845 -7.6875 8.25 C-4.99108421 6.16642802 -4.99108421 6.16642802 -3.3125 3.75 C-2.6628125 2.88375 -2.6628125 2.88375 -2 2 C-1.34 2 -0.68 2 0 2 C0 1.34 0 0.68 0 0 Z " fill="#D4474B" transform="translate(276,202)"/>
<path d="M0 0 C0.99 0 1.98 0 3 0 C2.67 6.6 2.34 13.2 2 20 C1.34 20 0.68 20 0 20 C0 13.4 0 6.8 0 0 Z " fill="#EFA7AC" transform="translate(278,176)"/>
<path d="M0 0 C0 3.23655184 -0.6550847 4.78752639 -2 7.6875 C-2.37125 8.49574219 -2.7425 9.30398437 -3.125 10.13671875 C-3.41375 10.75160156 -3.7025 11.36648437 -4 12 C-4.33 12 -4.66 12 -5 12 C-5.25 4.375 -5.25 4.375 -3 1 C-2.01 0.67 -1.02 0.34 0 0 Z " fill="#E7858A" transform="translate(224,168)"/>
<path d="M0 0 C0.33 1.32 0.66 2.64 1 4 C1.66 4 2.32 4 3 4 C3 4.66 3 5.32 3 6 C3.66 6 4.32 6 5 6 C4 9 4 9 2 10 C1.67 9.01 1.34 8.02 1 7 C0.01 7.495 0.01 7.495 -1 8 C-1.125 2.25 -1.125 2.25 0 0 Z " fill="#E25E5B" transform="translate(154,170)"/>
<path d="M0 0 C0.99 0.33 1.98 0.66 3 1 C3 1.66 3 2.32 3 3 C2.01 3.495 2.01 3.495 1 4 C0.67 4.99 0.34 5.98 0 7 C-0.66 7 -1.32 7 -2 7 C-2 8.32 -2 9.64 -2 11 C-1.01 11.33 -0.02 11.66 1 12 C-0.32 12 -1.64 12 -3 12 C-3.2954439 6.97745369 -2.98514628 4.10457614 0 0 Z " fill="#DD7679" transform="translate(205,99)"/>
<path d="M0 0 C1.65 0.33 3.3 0.66 5 1 C4.67 2.65 4.34 4.3 4 6 C2.02 5.34 0.04 4.68 -2 4 C-1.34 2.68 -0.68 1.36 0 0 Z " fill="#DB484B" transform="translate(263,154)"/>
<path d="M0 0 C-0.33 0.99 -0.66 1.98 -1 3 C-2.65204456 3.70211894 -4.31923769 4.36971413 -6 5 C-6.33 5.66 -6.66 6.32 -7 7 C-8.65 7 -10.3 7 -12 7 C-3.55172414 0 -3.55172414 0 0 0 Z " fill="#D14E53" transform="translate(194,134)"/>
<path d="M0 0 C0.33 0 0.66 0 1 0 C1 1.98 1 3.96 1 6 C-0.98 6.99 -2.96 7.98 -5 9 C-3.75471468 5.55151758 -2.38532951 2.80016942 0 0 Z " fill="#E48485" transform="translate(160,161)"/>
<path d="M0 0 C0.99 0.33 1.98 0.66 3 1 C3 1.99 3 2.98 3 4 C3.66 4.33 4.32 4.66 5 5 C5.40729228 7.32156597 5.74438677 9.6568787 6 12 C0 4.28571429 0 4.28571429 0 0 Z " fill="#EA9698" transform="translate(272,164)"/>
<path d="M0 0 C0.33 0.99 0.66 1.98 1 3 C1.66 3 2.32 3 3 3 C2.67 4.65 2.34 6.3 2 8 C1.34 8 0.68 8 0 8 C0 6.68 0 5.36 0 4 C-0.66 4 -1.32 4 -2 4 C-1.34 2.68 -0.68 1.36 0 0 Z " fill="#E1696A" transform="translate(349,368)"/>
<path d="M0 0 C4.95 0.99 4.95 0.99 10 2 C9.34 2.66 8.68 3.32 8 4 C5 3.8125 5 3.8125 2 3 C1.34 2.01 0.68 1.02 0 0 Z " fill="#D3444C" transform="translate(148,275)"/>
<path d="M0 0 C3.08089673 2.77280706 4.68775452 5.06326356 6 9 C3.525 8.01 3.525 8.01 1 7 C0.67 4.69 0.34 2.38 0 0 Z " fill="#E79597" transform="translate(338,161)"/>
<path d="M0 0 C4.6875 3.61328125 4.6875 3.61328125 6 5 C6 5.99 6 6.98 6 8 C5.01 8 4.02 8 3 8 C1.92474806 5.34771188 0.90543849 2.71631546 0 0 Z " fill="#D04A4C" transform="translate(287,94)"/>
<path d="M0 0 C2.5 2.3125 2.5 2.3125 5 5 C5 5.99 5 6.98 5 8 C3.0625 7.375 3.0625 7.375 1 6 C0.25 2.875 0.25 2.875 0 0 Z " fill="#E6908F" transform="translate(332,153)"/>
<path d="M0 0 C0.99 0 1.98 0 3 0 C3 0.99 3 1.98 3 3 C4.65 3 6.3 3 8 3 C8 3.33 8 3.66 8 4 C5.36 4 2.72 4 0 4 C0 2.68 0 1.36 0 0 Z " fill="#D54245" transform="translate(203,106)"/>
</svg>
