<?xml version="1.0" encoding="utf-8"?>
<!-- Generator: Adobe Illustrator 27.9.0, SVG Export Plug-In . SVG Version: 6.00 Build 0)  -->
<svg version="1.1" id="Layer_1" xmlns="http://www.w3.org/2000/svg" xmlns:xlink="http://www.w3.org/1999/xlink" x="0px" y="0px"
	 viewBox="0 0 1080 1080" style="enable-background:new 0 0 1080 1080;" xml:space="preserve">
<style type="text/css">
	.st0{opacity:0.3;}
	.st1{fill:#FFFFFF;}
	.st2{fill:none;stroke:#FFFFFF;stroke-miterlimit:10;}
	.st3{fill:url(#SVGID_1_);}
	.st4{fill:url(#SVGID_00000173149437691185166720000009671035304074125447_);}
	.st5{fill:url(#SVGID_00000157299175733001466640000009280339680170588845_);}
</style>
<rect x="1" y="0.5" width="1080" height="1080"/>
<g class="st0">
	<g>
		<g>
			<path class="st1" d="M0,40.5c351.2-0.4,728.5-0.6,1080,0c0,0,0,0.1,0,0.1C728.5,41.1,351,41.1,0,40.5L0,40.5z"/>
		</g>
		<g>
			<path class="st1" d="M0,75.1c351.2-0.4,728.5-0.6,1080,0c0,0,0,0.1,0,0.1C728.5,75.8,351,75.8,0,75.1L0,75.1z"/>
		</g>
		<g>
			<path class="st1" d="M0,109.8c351.2-0.4,728.5-0.6,1080,0c0,0,0,0.1,0,0.1C728.5,110.4,351,110.5,0,109.8L0,109.8z"/>
		</g>
		<g>
			<path class="st1" d="M0,144.5c351.2-0.4,728.5-0.6,1080,0c0,0,0,0.1,0,0.1C728.5,145.1,351,145.1,0,144.5L0,144.5z"/>
		</g>
		<g>
			<path class="st1" d="M0,179.1c351.2-0.4,728.5-0.6,1080,0c0,0,0,0.1,0,0.1C728.5,179.8,351,179.8,0,179.1L0,179.1z"/>
		</g>
		<g>
			<path class="st1" d="M0,213.8c351.2-0.4,728.5-0.6,1080,0c0,0,0,0.1,0,0.1C728.5,214.4,351,214.5,0,213.8L0,213.8z"/>
		</g>
		<g>
			<path class="st1" d="M0,248.5c351.2-0.4,728.5-0.6,1080,0c0,0,0,0.1,0,0.1C728.5,249.1,351,249.2,0,248.5L0,248.5z"/>
		</g>
		<g>
			<path class="st1" d="M0,283.2c351.2-0.4,728.5-0.6,1080,0c0,0,0,0.1,0,0.1C728.5,283.8,351,283.8,0,283.2L0,283.2z"/>
		</g>
		<g>
			<path class="st1" d="M0,317.8c351.2-0.4,728.5-0.6,1080,0c0,0,0,0.1,0,0.1C728.5,318.5,351,318.5,0,317.8L0,317.8z"/>
		</g>
		<g>
			<path class="st1" d="M0,352.5c351.2-0.4,728.5-0.6,1080,0c0,0,0,0.1,0,0.1C728.5,353.1,351,353.2,0,352.5L0,352.5z"/>
		</g>
		<g>
			<path class="st1" d="M0,387.2c351.2-0.4,728.5-0.6,1080,0c0,0,0,0.1,0,0.1C728.5,387.8,351,387.9,0,387.2L0,387.2z"/>
		</g>
		<g>
			<path class="st1" d="M0,421.8c351.2-0.4,728.5-0.6,1080,0c0,0,0,0.1,0,0.1C728.5,422.5,351,422.5,0,421.8L0,421.8z"/>
		</g>
		<g>
			<path class="st1" d="M0,456.5c351.2-0.4,728.5-0.6,1080,0c0,0,0,0.1,0,0.1C728.5,457.1,351,457.2,0,456.5L0,456.5z"/>
		</g>
		<g>
			<path class="st1" d="M0,491.2c351.2-0.4,728.5-0.6,1080,0c0,0,0,0.1,0,0.1C728.5,491.8,351,491.9,0,491.2L0,491.2z"/>
		</g>
		<g>
			<path class="st1" d="M0,525.9c351.2-0.4,728.5-0.6,1080,0c0,0,0,0.1,0,0.1C728.5,526.5,351,526.5,0,525.9L0,525.9z"/>
		</g>
		<g>
			<path class="st1" d="M0,560.5c351.2-0.4,728.5-0.6,1080,0c0,0,0,0.1,0,0.1C728.5,561.2,351,561.2,0,560.5L0,560.5z"/>
		</g>
		<g>
			<path class="st1" d="M0,595.2c351.2-0.4,728.5-0.6,1080,0c0,0,0,0.1,0,0.1C728.5,595.8,351,595.9,0,595.2L0,595.2z"/>
		</g>
		<g>
			<path class="st1" d="M0,629.9c351.2-0.4,728.5-0.6,1080,0c0,0,0,0.1,0,0.1C728.5,630.5,351,630.6,0,629.9L0,629.9z"/>
		</g>
		<g>
			<path class="st1" d="M0,664.6c351.2-0.4,728.5-0.6,1080,0c0,0,0,0.1,0,0.1C728.5,665.2,351,665.2,0,664.6L0,664.6z"/>
		</g>
		<g>
			<path class="st1" d="M0,699.2c351.2-0.4,728.5-0.6,1080,0c0,0,0,0.1,0,0.1C728.5,699.9,351,699.9,0,699.2L0,699.2z"/>
		</g>
		<g>
			<path class="st1" d="M0,733.9c351.2-0.4,728.5-0.6,1080,0c0,0,0,0.1,0,0.1C728.5,734.5,351,734.6,0,733.9L0,733.9z"/>
		</g>
		<g>
			<path class="st1" d="M0,768.6c351.2-0.4,728.5-0.6,1080,0c0,0,0,0.1,0,0.1C728.5,769.2,351,769.2,0,768.6L0,768.6z"/>
		</g>
		<g>
			<path class="st1" d="M0,803.2c351.2-0.4,728.5-0.6,1080,0c0,0,0,0.1,0,0.1C728.5,803.9,351,803.9,0,803.2L0,803.2z"/>
		</g>
		<g>
			<path class="st1" d="M0,837.9c351.2-0.4,728.5-0.6,1080,0c0,0,0,0.1,0,0.1C728.5,838.5,351,838.6,0,837.9L0,837.9z"/>
		</g>
		<g>
			<path class="st1" d="M0,872.6c351.2-0.4,728.5-0.6,1080,0c0,0,0,0.1,0,0.1C728.5,873.2,351,873.3,0,872.6L0,872.6z"/>
		</g>
		<g>
			<path class="st1" d="M0,907.3c351.2-0.4,728.5-0.6,1080,0c0,0,0,0.1,0,0.1C728.5,907.9,351,907.9,0,907.3L0,907.3z"/>
		</g>
		<g>
			<path class="st1" d="M0,941.9c351.2-0.4,728.5-0.6,1080,0c0,0,0,0.1,0,0.1C728.5,942.6,351,942.6,0,941.9L0,941.9z"/>
		</g>
		<g>
			<path class="st1" d="M0,976.6c351.2-0.4,728.5-0.6,1080,0c0,0,0,0.1,0,0.1C728.5,977.2,351,977.3,0,976.6L0,976.6z"/>
		</g>
		<g>
			<path class="st1" d="M0,1011.3c351.2-0.4,728.5-0.6,1080,0c0,0,0,0.1,0,0.1C728.5,1011.9,351,1012,0,1011.3L0,1011.3z"/>
		</g>
		<g>
			<path class="st1" d="M0,1045.9c351.2-0.4,728.5-0.6,1080,0c0,0,0,0.1,0,0.1C728.5,1046.6,351,1046.6,0,1045.9L0,1045.9z"/>
		</g>
	</g>
	<g>
		<g>
			<path class="st1" d="M1042.8,3.2c0.4,351.2,0.6,728.5,0,1080c0,0-0.1,0-0.1,0C1042.2,731.7,1042.1,354.3,1042.8,3.2L1042.8,3.2z"
				/>
		</g>
		<g>
			<path class="st1" d="M1008.1,3.2c0.4,351.2,0.6,728.5,0,1080c0,0-0.1,0-0.1,0C1007.5,731.7,1007.5,354.3,1008.1,3.2L1008.1,3.2z"
				/>
		</g>
		<g>
			<path class="st1" d="M973.5,3.2c0.4,351.2,0.6,728.5,0,1080c0,0-0.1,0-0.1,0C972.8,731.7,972.8,354.3,973.5,3.2L973.5,3.2z"/>
		</g>
		<g>
			<path class="st1" d="M938.8,3.2c0.4,351.2,0.6,728.5,0,1080c0,0-0.1,0-0.1,0C938.2,731.7,938.1,354.3,938.8,3.2L938.8,3.2z"/>
		</g>
		<g>
			<path class="st1" d="M904.1,3.2c0.4,351.2,0.6,728.5,0,1080c0,0-0.1,0-0.1,0C903.5,731.7,903.4,354.3,904.1,3.2L904.1,3.2z"/>
		</g>
		<g>
			<path class="st1" d="M869.4,3.2c0.4,351.2,0.6,728.5,0,1080c0,0-0.1,0-0.1,0C868.8,731.7,868.8,354.3,869.4,3.2L869.4,3.2z"/>
		</g>
		<g>
			<path class="st1" d="M834.8,3.2c0.4,351.2,0.6,728.5,0,1080c0,0-0.1,0-0.1,0C834.1,731.7,834.1,354.3,834.8,3.2L834.8,3.2z"/>
		</g>
		<g>
			<path class="st1" d="M800.1,3.2c0.4,351.2,0.6,728.5,0,1080c0,0-0.1,0-0.1,0C799.5,731.7,799.4,354.3,800.1,3.2L800.1,3.2z"/>
		</g>
		<g>
			<path class="st1" d="M765.4,3.2c0.4,351.2,0.6,728.5,0,1080c0,0-0.1,0-0.1,0C764.8,731.7,764.7,354.3,765.4,3.2L765.4,3.2z"/>
		</g>
		<g>
			<path class="st1" d="M730.7,3.2c0.4,351.2,0.6,728.5,0,1080c0,0-0.1,0-0.1,0C730.1,731.7,730.1,354.3,730.7,3.2L730.7,3.2z"/>
		</g>
		<g>
			<path class="st1" d="M696.1,3.2c0.4,351.2,0.6,728.5,0,1080c0,0-0.1,0-0.1,0C695.4,731.7,695.4,354.3,696.1,3.2L696.1,3.2z"/>
		</g>
		<g>
			<path class="st1" d="M661.4,3.2c0.4,351.2,0.6,728.5,0,1080c0,0-0.1,0-0.1,0C660.8,731.7,660.7,354.3,661.4,3.2L661.4,3.2z"/>
		</g>
		<g>
			<path class="st1" d="M626.7,3.2c0.4,351.2,0.6,728.5,0,1080c0,0-0.1,0-0.1,0C626.1,731.7,626.1,354.3,626.7,3.2L626.7,3.2z"/>
		</g>
		<g>
			<path class="st1" d="M592.1,3.2c0.4,351.2,0.6,728.5,0,1080c0,0-0.1,0-0.1,0C591.4,731.7,591.4,354.3,592.1,3.2L592.1,3.2z"/>
		</g>
		<g>
			<path class="st1" d="M557.4,3.2c0.4,351.2,0.6,728.5,0,1080c0,0-0.1,0-0.1,0C556.8,731.7,556.7,354.3,557.4,3.2L557.4,3.2z"/>
		</g>
		<g>
			<path class="st1" d="M522.7,3.2c0.4,351.2,0.6,728.5,0,1080c0,0-0.1,0-0.1,0C522.1,731.7,522,354.3,522.7,3.2L522.7,3.2z"/>
		</g>
		<g>
			<path class="st1" d="M488,3.2c0.4,351.2,0.6,728.5,0,1080c0,0-0.1,0-0.1,0C487.4,731.7,487.4,354.3,488,3.2L488,3.2z"/>
		</g>
		<g>
			<path class="st1" d="M453.4,3.2c0.4,351.2,0.6,728.5,0,1080c0,0-0.1,0-0.1,0C452.7,731.7,452.7,354.3,453.4,3.2L453.4,3.2z"/>
		</g>
		<g>
			<path class="st1" d="M418.7,3.2c0.4,351.2,0.6,728.5,0,1080c0,0-0.1,0-0.1,0C418.1,731.7,418,354.3,418.7,3.2L418.7,3.2z"/>
		</g>
		<g>
			<path class="st1" d="M384,3.2c0.4,351.2,0.6,728.5,0,1080c0,0-0.1,0-0.1,0C383.4,731.7,383.3,354.3,384,3.2L384,3.2z"/>
		</g>
		<g>
			<path class="st1" d="M349.4,3.2c0.4,351.2,0.6,728.5,0,1080c0,0-0.1,0-0.1,0C348.7,731.7,348.7,354.3,349.4,3.2L349.4,3.2z"/>
		</g>
		<g>
			<path class="st1" d="M314.7,3.2c0.4,351.2,0.6,728.5,0,1080c0,0-0.1,0-0.1,0C314.1,731.7,314,354.3,314.7,3.2L314.7,3.2z"/>
		</g>
		<g>
			<path class="st1" d="M280,3.2c0.4,351.2,0.6,728.5,0,1080c0,0-0.1,0-0.1,0C279.4,731.7,279.3,354.3,280,3.2L280,3.2z"/>
		</g>
		<g>
			<path class="st1" d="M245.3,3.2c0.4,351.2,0.6,728.5,0,1080c0,0-0.1,0-0.1,0C244.7,731.7,244.7,354.3,245.3,3.2L245.3,3.2z"/>
		</g>
		<g>
			<path class="st1" d="M210.7,3.2c0.4,351.2,0.6,728.5,0,1080c0,0-0.1,0-0.1,0C210,731.7,210,354.3,210.7,3.2L210.7,3.2z"/>
		</g>
		<g>
			<path class="st1" d="M176,3.2c0.4,351.2,0.6,728.5,0,1080c0,0-0.1,0-0.1,0C175.4,731.7,175.3,354.3,176,3.2L176,3.2z"/>
		</g>
		<g>
			<path class="st1" d="M141.3,3.2c0.4,351.2,0.6,728.5,0,1080c0,0-0.1,0-0.1,0C140.7,731.7,140.6,354.3,141.3,3.2L141.3,3.2z"/>
		</g>
		<g>
			<path class="st1" d="M106.6,3.2c0.4,351.2,0.6,728.5,0,1080c0,0-0.1,0-0.1,0C106,731.7,106,354.3,106.6,3.2L106.6,3.2z"/>
		</g>
		<g>
			<path class="st1" d="M72,3.2c0.4,351.2,0.6,728.5,0,1080c0,0-0.1,0-0.1,0C71.3,731.7,71.3,354.3,72,3.2L72,3.2z"/>
		</g>
		<g>
			<path class="st1" d="M37.3,3.2c0.4,351.2,0.6,728.5,0,1080c0,0-0.1,0-0.1,0C36.7,731.7,36.6,354.3,37.3,3.2L37.3,3.2z"/>
		</g>
	</g>
</g>
<line class="st2" x1="0" y1="1080.7" x2="1080" y2="1080.7"/>
<g>
	<g>
		<radialGradient id="SVGID_1_" cx="1396.5471" cy="1054.2075" r="2.4578" gradientUnits="userSpaceOnUse">
			<stop  offset="0" style="stop-color:#FFFFFF"/>
			<stop  offset="1" style="stop-color:#000000"/>
		</radialGradient>
		<path class="st3" d="M1396.5,1056.7c3.2,0,3.2-5,0-5C1393.3,1051.7,1393.3,1056.7,1396.5,1056.7L1396.5,1056.7z"/>
	</g>
</g>
<radialGradient id="SVGID_00000093145039736954236820000015025197122637907593_" cx="287.569" cy="717.2931" r="259.3621" gradientUnits="userSpaceOnUse">
	<stop  offset="0" style="stop-color:#00B7D5"/>
	<stop  offset="1" style="stop-color:#000000"/>
</radialGradient>
<circle style="fill:url(#SVGID_00000093145039736954236820000015025197122637907593_);" cx="287.6" cy="717.3" r="259.4"/>
<radialGradient id="SVGID_00000145031165182167200400000013954321567178983083_" cx="800.4784" cy="299.8621" r="259.3621" gradientUnits="userSpaceOnUse">
	<stop  offset="0" style="stop-color:#00B7D5"/>
	<stop  offset="1" style="stop-color:#000000"/>
</radialGradient>
<circle style="fill:url(#SVGID_00000145031165182167200400000013954321567178983083_);" cx="800.5" cy="299.9" r="259.4"/>
</svg>
