<?xml version="1.0" encoding="UTF-8"?>
<svg version="1.1" xmlns="http://www.w3.org/2000/svg" width="500" height="500">
<path d="M0 0 C1.3191582 0.69429379 2.64649406 1.37530495 4 2 C4 2.66 4 3.32 4 4 C4.8353125 4.0928125 4.8353125 4.0928125 5.6875 4.1875 C8.97317948 5.34192792 10.60136678 7.49538888 13 10 C13.77859375 10.80695313 14.5571875 11.61390625 15.359375 12.4453125 C32.62827499 31.8022821 38.44734748 57.44739925 38.375 82.8125 C38.37418427 83.89390762 38.37418427 83.89390762 38.37335205 84.99716187 C38.30641583 104.40893392 34.81528401 122.4144084 28.71728516 140.828125 C28.07460644 142.7740984 27.46296063 144.73025652 26.85546875 146.6875 C22.40887459 160.26296768 14.93068494 172.57453533 8 185 C7.34 185 6.68 185 6 185 C5.71125 185.763125 5.4225 186.52625 5.125 187.3125 C4 190 4 190 2 193 C1.34 193 0.68 193 0 193 C-0.21011719 193.69480469 -0.42023438 194.38960937 -0.63671875 195.10546875 C-2.39256108 198.83348928 -4.91838678 201.45170577 -7.8125 204.3125 C-8.3885498 204.88282959 -8.96459961 205.45315918 -9.55810547 206.04077148 C-19.88433549 215.95041765 -32.18106813 223.04084489 -46.6875 223.5 C-54.20067737 223.27857506 -58.69485545 221.85850339 -64.3125 217 C-66.94856782 212.3136572 -67.89869074 207.23121901 -69 202 C-69.60328125 202.77085937 -70.2065625 203.54171875 -70.828125 204.3359375 C-71.62734375 205.33882812 -72.4265625 206.34171875 -73.25 207.375 C-74.43335938 208.87160156 -74.43335938 208.87160156 -75.640625 210.3984375 C-77.80050379 212.7800257 -79.14003221 213.74562816 -82 215 C-83.26804566 217.0335948 -83.26804566 217.0335948 -84 219 C-84.66 219 -85.32 219 -86 219 C-86.185625 219.556875 -86.37125 220.11375 -86.5625 220.6875 C-88.64110826 224.03134807 -91.60813602 226.04807828 -95 228 C-95.66 228 -96.32 228 -97 228 C-97 228.66 -97 229.32 -97 230 C-111.75972467 238.92948 -127.74831088 244.45272881 -145.03125 240.265625 C-149.5939005 238.41014713 -152.75212027 235.72550911 -156 232 C-156.5053125 231.54882812 -157.010625 231.09765625 -157.53125 230.6328125 C-162.2655257 225.36970813 -162.8523079 215.80519756 -163 209 C-162.81535898 206.59966675 -162.46329249 204.36793941 -162 202 C-162.61875 202.99 -163.2375 203.98 -163.875 205 C-164.57625 205.99 -165.2775 206.98 -166 208 C-166.66 208 -167.32 208 -168 208 C-168.268125 208.7425 -168.53625 209.485 -168.8125 210.25 C-169.95276751 212.89061949 -171.09380306 214.85552844 -173 217 C-173.66 217 -174.32 217 -175 217 C-175 217.66 -175 218.32 -175 219 C-175.66 219 -176.32 219 -177 219 C-177.40798828 219.88171875 -177.40798828 219.88171875 -177.82421875 220.78125 C-180.63734915 226.08974856 -185.0923775 230.59192882 -190 234 C-190.66 234 -191.32 234 -192 234 C-192 234.66 -192 235.32 -192 236 C-197.35714286 241 -197.35714286 241 -201 241 C-201 241.66 -201 242.32 -201 243 C-210.71600893 249.75180282 -220.37088418 254.61596195 -232 257 C-233.05058594 257.22171875 -234.10117188 257.4434375 -235.18359375 257.671875 C-247.48599396 259.99130842 -261.3139656 260.24304296 -272.5 253.75 C-281.08783187 247.60272719 -285.47720582 239.05950984 -288 229 C-292.21385715 194.37308694 -280.03370691 157.40245766 -260.73828125 128.72265625 C-259.26752009 126.41901461 -257.95687199 124.1114698 -256.65625 121.7109375 C-254.12133805 117.10421792 -251.24902203 112.83251757 -248.1875 108.5625 C-247.66269043 107.82459229 -247.13788086 107.08668457 -246.59716797 106.32641602 C-243.12746082 101.48126719 -239.53876153 96.76192286 -235.75 92.16015625 C-233.45373222 89.32570071 -231.33302971 86.37573473 -229.2265625 83.3984375 C-228.82179687 82.93695313 -228.41703125 82.47546875 -228 82 C-227.34 82 -226.68 82 -226 82 C-226 81.34 -226 80.68 -226 80 C-225.34 80 -224.68 80 -224 80 C-223.63261719 79.15695313 -223.63261719 79.15695313 -223.2578125 78.296875 C-217.89062007 68.49591491 -207.49809986 60.0361361 -199.078125 52.79296875 C-196.7983917 50.82605599 -194.5553102 48.8213747 -192.3125 46.8125 C-183.51395631 39 -183.51395631 39 -181 39 C-181 38.34 -181 37.68 -181 37 C-179.0128293 35.40781392 -177.02863838 33.94513833 -174.9375 32.5 C-174.31061279 32.06075195 -173.68372559 31.62150391 -173.0378418 31.16894531 C-171.0315783 29.76986343 -169.01708793 28.38342242 -167 27 C-166.35385742 26.55462891 -165.70771484 26.10925781 -165.04199219 25.65039062 C-157.25463361 20.30077951 -149.43256539 15.28907377 -141 11 C-140.3901123 10.68820801 -139.78022461 10.37641602 -139.15185547 10.05517578 C-130.86916482 5.8298911 -122.55952339 1.64010548 -114 -2 C-112.82244141 -2.50273438 -112.82244141 -2.50273438 -111.62109375 -3.015625 C-78.70221688 -15.99771729 -30.44969664 -22.07603006 0 0 Z M-91 64 C-91 64.66 -91 65.32 -91 66 C-91.66 66 -92.32 66 -93 66 C-96.87692929 75.4153997 -98.53704549 82.15599567 -94.91015625 91.95703125 C-93.10507504 96.00878006 -90.96619115 98.34838272 -87.3125 100.8125 C-81.66072399 102.83860838 -76.49328954 102.86177288 -70.9375 100.5 C-69.968125 100.005 -68.99875 99.51 -68 99 C-68 98.34 -68 97.68 -68 97 C-67.34 97 -66.68 97 -66 97 C-62.34863462 91.53384069 -61.3126837 87.59821042 -61.4375 81.0625 C-61.44700684 80.26634277 -61.45651367 79.47018555 -61.46630859 78.64990234 C-61.6789562 72.67733172 -62.564948 68.28130353 -67 64 C-67.845625 63.175 -68.69125 62.35 -69.5625 61.5 C-76.86510211 58.31340999 -85.06216624 58.39204589 -91 64 Z M-38 67 C-42.07707024 73.73520652 -41.73965119 80.34050097 -41 88 C-39.4636949 93.45140518 -36.36568574 97.39830926 -32 101 C-27.22074939 102.54360889 -21.77447537 102.99707709 -17 101.28125 C-12.07887172 98.65099178 -9.16528309 95.38883033 -6.75 90.4375 C-5.06978513 82.7365152 -4.94989267 75.07093595 -8.6953125 67.98046875 C-11.03631057 64.42691778 -13.07716704 61.825207 -17 60 C-25.8827591 58.23251222 -32.47024223 59.61790958 -38 67 Z " fill="#FDFCF7" transform="translate(377,121)"/>
<path d="M0 0 C0.33 0 0.66 0 1 0 C2.34630362 10.09727712 2.34630362 19.90272288 1 30 C0.67 30 0.34 30 0 30 C-0.85803148 19.83562705 -1.03351814 10.17617858 0 0 Z " fill="#E0DBFA" transform="translate(89,320)"/>
<path d="M0 0 C0.33 0.99 0.66 1.98 1 3 C-3.11111111 8.55555556 -3.11111111 8.55555556 -6 10 C-6.33 10.99 -6.66 11.98 -7 13 C-7.66 13 -8.32 13 -9 13 C-9 13.66 -9 14.32 -9 15 C-10.32 15.33 -11.64 15.66 -13 16 C-11 13 -9 10 -7 7 C-6.34 7 -5.68 7 -5 7 C-5 6.34 -5 5.68 -5 5 C-4.34 5 -3.68 5 -3 5 C-2.690625 4.360625 -2.38125 3.72125 -2.0625 3.0625 C-1 1 -1 1 0 0 Z " fill="#E1DAF5" transform="translate(156,196)"/>
<path d="M0 0 C1.55814314 2.4331873 2.06779035 3.57088708 1.609375 6.47265625 C1.32578125 7.32730469 1.0421875 8.18195313 0.75 9.0625 C0.34007813 10.34833984 0.34007813 10.34833984 -0.078125 11.66015625 C-1 14 -1 14 -3 17 C-3.66 17 -4.32 17 -5 17 C-3.83348574 11.07136283 -2.24480642 5.61201606 0 0 Z " fill="#F2ECFC" transform="translate(100,281)"/>
<path d="M0 0 C0 0.99 0 1.98 0 3 C-1.63604196 4.37073786 -3.30678061 5.70055256 -5 7 C-5.556875 7.7425 -6.11375 8.485 -6.6875 9.25 C-7.120625 9.8275 -7.55375 10.405 -8 11 C-8.66 11 -9.32 11 -10 11 C-10 11.66 -10 12.32 -10 13 C-11.98 13.66 -13.96 14.32 -16 15 C-11.30217584 9.06590633 -6.01350104 4.57548992 0 0 Z " fill="#E3DAF5" transform="translate(193,161)"/>
<path d="M0 0 C1.25348607 2.95106435 1.01044806 3.97406463 -0.21484375 7.015625 C-1.06755859 8.61664063 -1.06755859 8.61664063 -1.9375 10.25 C-2.50339844 11.32765625 -3.06929688 12.4053125 -3.65234375 13.515625 C-4.09707031 14.33546875 -4.54179687 15.1553125 -5 16 C-5.66 14.68 -6.32 13.36 -7 12 C-6.01 11.67 -5.02 11.34 -4 11 C-4.33 9.35 -4.66 7.7 -5 6 C-4.01 5.67 -3.02 5.34 -2 5 C-2 4.01 -2 3.02 -2 2 C-1.34 2 -0.68 2 0 2 C0 1.34 0 0.68 0 0 Z " fill="#E8E3F5" transform="translate(399,274)"/>
<path d="M0 0 C-0.5 2.3125 -0.5 2.3125 -2 5 C-4.54259302 6.45526382 -7.12331598 7.44175241 -10 8 C-10.99 7.67 -11.98 7.34 -13 7 C-11.21190303 5.82786955 -9.41940875 4.66244474 -7.625 3.5 C-6.62726563 2.8503125 -5.62953125 2.200625 -4.6015625 1.53125 C-2 0 -2 0 0 0 Z " fill="#E3DFF6" transform="translate(234,134)"/>
<path d="M0 0 C0.33 0 0.66 0 1 0 C1.09688221 5.44693314 1.12862175 10.63904667 0 16 C-0.33 16 -0.66 16 -1 16 C-1.06058594 15.40832031 -1.12117188 14.81664062 -1.18359375 14.20703125 C-1.62012371 10.09021792 -2.08671346 6.04455467 -3 2 C-2.01 2 -1.02 2 0 2 C0 1.34 0 0.68 0 0 Z " fill="#EBE7F8" transform="translate(372,189)"/>
<path d="M0 0 C-0.3125 1.875 -0.3125 1.875 -1 4 C-4.68734758 6.45823172 -7.69699971 7.01242616 -12 8 C-4.43243243 0 -4.43243243 0 0 0 Z " fill="#E6E2F7" transform="translate(221,142)"/>
<path d="M0 0 C0 0.33 0 0.66 0 1 C-7.69057071 3.66815719 -15.05455308 2.76557692 -23 2 C-23 1.67 -23 1.34 -23 1 C-15.3164908 0.38794237 -7.70947565 -0.13292199 0 0 Z " fill="#E0DBF7" transform="translate(329,107)"/>
<path d="M0 0 C0.99 0.33 1.98 0.66 3 1 C0.03 4.96 0.03 4.96 -3 9 C-3.66 8.01 -4.32 7.02 -5 6 C-3.35 4.02 -1.7 2.04 0 0 Z " fill="#ECE7F8" transform="translate(304,323)"/>
<path d="M0 0 C0.66 0.99 1.32 1.98 2 3 C0.625 6.6875 0.625 6.6875 -1 10 C-2.32 10 -3.64 10 -5 10 C-3.66511872 6.40608886 -2.03977277 3.24509304 0 0 Z " fill="#DEDAF7" transform="translate(126,233)"/>
<path d="M0 0 C2.96052484 3.36423277 3.92289822 6.69159287 5 11 C2 10 2 10 0.8125 7.75 C0.00061706 5.00208853 -0.16260121 2.84552111 0 0 Z " fill="#EAE4F9" transform="translate(403,151)"/>
<path d="M0 0 C1 2 1 2 0.44140625 4.1640625 C0.15136719 4.97617188 -0.13867188 5.78828125 -0.4375 6.625 C-0.72496094 7.44226563 -1.01242187 8.25953125 -1.30859375 9.1015625 C-1.53675781 9.72804687 -1.76492188 10.35453125 -2 11 C-2.33 11 -2.66 11 -3 11 C-3.33 8.36 -3.66 5.72 -4 3 C-2.68 2.01 -1.36 1.02 0 0 Z " fill="#EADEF9" transform="translate(283,187)"/>
<path d="M0 0 C1 3 1 3 0.0625 5.1875 C-0.4634375 6.0846875 -0.4634375 6.0846875 -1 7 C-1.66 7 -2.32 7 -3 7 C-3 7.66 -3 8.32 -3 9 C-4.32 9.33 -5.64 9.66 -7 10 C-6.02223933 8.51990357 -5.0427506 7.04094856 -4.0625 5.5625 C-3.51722656 4.73878906 -2.97195312 3.91507813 -2.41015625 3.06640625 C-1 1 -1 1 0 0 Z " fill="#DFDBF5" transform="translate(142,212)"/>
<path d="M0 0 C-0.928125 0.45375 -1.85625 0.9075 -2.8125 1.375 C-6.03921389 2.9421633 -6.03921389 2.9421633 -9 5 C-10.32 4.01 -11.64 3.02 -13 2 C-11.39935157 1.46845258 -9.79431126 0.95011647 -8.1875 0.4375 C-7.29417969 0.14746094 -6.40085937 -0.14257812 -5.48046875 -0.44140625 C-3 -1 -3 -1 0 0 Z " fill="#E2DBF4" transform="translate(288,113)"/>
<path d="M0 0 C-1.4317616 0.69937202 -2.87067032 1.38412718 -4.3125 2.0625 C-5.51326172 2.63677734 -5.51326172 2.63677734 -6.73828125 3.22265625 C-9 4 -9 4 -12 3 C-3.33333333 -1.66666667 -3.33333333 -1.66666667 0 0 Z " fill="#DED8F6" transform="translate(270,356)"/>
<path d="M0 0 C0.66 0 1.32 0 2 0 C0.61122646 3.35620271 -0.91677965 5.07298728 -4 7 C-4.66 7 -5.32 7 -6 7 C-5.34 5.68 -4.68 4.36 -4 3 C-3.01 3 -2.02 3 -1 3 C-0.67 2.01 -0.34 1.02 0 0 Z " fill="#DED9FB" transform="translate(364,326)"/>
<path d="M0 0 C0.66 0 1.32 0 2 0 C2 0.66 2 1.32 2 2 C2.99 2.33 3.98 2.66 5 3 C0.56923077 6.07692308 0.56923077 6.07692308 -2.3125 5.6875 C-2.869375 5.460625 -3.42625 5.23375 -4 5 C-3.01 5 -2.02 5 -1 5 C-0.67 3.35 -0.34 1.7 0 0 Z " fill="#E4DEF2" transform="translate(159,368)"/>
<path d="M0 0 C1.1875 1.625 1.1875 1.625 2 4 C-0.19512195 9.59756098 -0.19512195 9.59756098 -3 11 C-2.32829194 7.1936543 -1.27253436 3.64793184 0 0 Z " fill="#E3DAF8" transform="translate(100,281)"/>
<path d="M0 0 C0.33 0.66 0.66 1.32 1 2 C0.0625 4.125 0.0625 4.125 -1 6 C-1.66 6 -2.32 6 -3 6 C-3.33 6.66 -3.66 7.32 -4 8 C-4.66 7.34 -5.32 6.68 -6 6 C-4.02 4.02 -2.04 2.04 0 0 Z " fill="#D4CDF2" transform="translate(167,184)"/>
<path d="M0 0 C0.66 0.33 1.32 0.66 2 1 C1.67 2.32 1.34 3.64 1 5 C-0.65 5 -2.3 5 -4 5 C-3 2 -3 2 0 0 Z " fill="#E8E2F9" transform="translate(365,218)"/>
<path d="M0 0 C0.99 0.66 1.98 1.32 3 2 C0.69 3.32 -1.62 4.64 -4 6 C-4.33 5.01 -4.66 4.02 -5 3 C-3.35 2.67 -1.7 2.34 0 2 C0 1.34 0 0.68 0 0 Z " fill="#E4DDFA" transform="translate(289,180)"/>
<path d="M0 0 C0.99 0 1.98 0 3 0 C2.75 1.875 2.75 1.875 2 4 C-0.0625 5.25 -0.0625 5.25 -2 6 C-1.125 1.125 -1.125 1.125 0 0 Z " fill="#E9E3F5" transform="translate(190,347)"/>
<path d="M0 0 C0.66 0 1.32 0 2 0 C0.125 4.75 0.125 4.75 -1 7 C-1.99 6.67 -2.98 6.34 -4 6 C-2.7260411 3.96166576 -1.38938077 1.96147874 0 0 Z " fill="#ECE4F8" transform="translate(380,307)"/>
<path d="M0 0 C1.26829268 5.07317073 1.26829268 5.07317073 0 8 C-1.98 8.99 -1.98 8.99 -4 10 C-2.68 6.7 -1.36 3.4 0 0 Z " fill="#DAD4EF" transform="translate(370,208)"/>
<path d="M0 0 C0 3 0 3 -1 5 C-2.97888961 5.72693904 -4.97954558 6.39816251 -7 7 C-4.78071806 4.09197539 -3.07030857 2.04687238 0 0 Z " fill="#D3CBEF" transform="translate(175,177)"/>
</svg>
