<?xml version="1.0" encoding="UTF-8"?>
<svg version="1.1" xmlns="http://www.w3.org/2000/svg" width="360" height="360">
<path d="M0 0 C2.48257791 0.8499348 3.69956027 1.47220048 5.01171875 3.77734375 C6.55855343 8.72184999 7.32888753 13.34073642 7.6953125 18.5 C8.11068243 23.27142894 8.72920983 28.00491738 9.375 32.75 C9.48908203 33.64944336 9.60316406 34.54888672 9.72070312 35.47558594 C10.70041545 42.54051682 12.01782738 49.42539741 18 54 C23.41047329 55.75474809 28.47136426 55.71160629 33.625 53.3125 C36.90365509 51.36929711 39.33574484 48.70326329 42 46 C44.01236922 44.11458562 46.03073558 42.23917082 48.0625 40.375 C48.62541748 39.85719971 49.18833496 39.33939941 49.76831055 38.8059082 C50.93558181 37.73257969 52.10330849 36.65974623 53.27148438 35.58740234 C54.92747376 34.06660531 56.58120352 32.54339024 58.234375 31.01953125 C63.03203692 26.60245671 67.84484584 22.21334642 72.796875 17.96875 C74.64422111 16.31793007 76.42629171 14.63149115 78.203125 12.90625 C78.77683838 12.35638428 79.35055176 11.80651855 79.94165039 11.23999023 C81.08613429 10.14031902 82.22117284 9.03071321 83.34545898 7.91040039 C85.85770242 5.51135898 87.38326415 4.07407489 90.89453125 3.65234375 C91.58933594 3.76707031 92.28414062 3.88179688 93 4 C93.734375 6.18359375 93.734375 6.18359375 94 9 C92.515625 11.47265625 92.515625 11.47265625 90.25 14.0625 C89.41984375 15.02285156 88.5896875 15.98320313 87.734375 16.97265625 C84.55341415 20.51738498 81.33378903 24.02735014 78.09106445 27.515625 C74.28605941 31.62526938 70.75788692 35.92201928 67.24609375 40.28515625 C64.9116941 43.10673495 62.48009402 45.80590712 60 48.5 C59.17628906 49.4075 58.35257813 50.315 57.50390625 51.25 C55.82039909 53.09896886 54.11944997 54.93219131 52.40234375 56.75 C47.61161338 62.09496701 44.73350475 66.1495246 44.66015625 73.484375 C45.21656971 77.60311375 46.40465062 79.72166394 49 83 C52.70198273 85.68600119 55.4001359 86.38512511 59.9375 86.5625 C65.94140342 86.88961392 71.77619666 87.64559595 77.7109375 88.59765625 C81.17457367 89.02135521 84.51324784 89.0039133 88 89 C90.11075911 89.23933819 92.21661652 89.52879307 94.3125 89.875 C95.33988281 90.03742188 96.36726562 90.19984375 97.42578125 90.3671875 C100 91 100 91 102 93 C101.875 95.5 101.875 95.5 101 98 C96.45509202 101.45413006 89.61660327 102.01545568 84.0625 102.4375 C76.93189367 102.99364757 69.96347076 104.32838053 62.94287109 105.64892578 C61.25530052 105.95386754 59.55965547 106.21345081 57.86328125 106.46484375 C53.70207842 107.11794733 51.42890877 107.67831842 48 110.25 C44.54391218 115.00212075 43.20827389 119.5540916 44.00390625 125.37890625 C46.10125284 130.89780648 50.6633786 135.14329551 54.60498047 139.44287109 C57.6074453 142.79423978 60.28561044 146.41478239 63 150 C62.1875 151.9375 62.1875 151.9375 61 154 C58 155 58 155 56.23046875 154.13671875 C55.55628906 153.65847656 54.88210937 153.18023437 54.1875 152.6875 C53.40632812 152.1409375 52.62515625 151.594375 51.8203125 151.03125 C50.88960937 150.3609375 49.95890625 149.690625 49 149 C47.78937501 148.13497914 46.57841703 147.27042417 45.3671875 146.40625 C43.4742664 145.055343 41.58309811 143.70238016 39.69799805 142.34057617 C34.56825093 138.64245271 31.38182368 137.34514869 25 138 C20.25364861 139.73424378 17.79456141 141.82533756 15 146 C14.08980676 149.5524193 14.08980676 149.5524193 13.75 153.375 C13.60046875 154.64085937 13.4509375 155.90671875 13.296875 157.2109375 C13.01344998 160.82833578 12.97859306 164.37366461 13 168 C12.88243983 169.52327968 12.73896329 171.0449157 12.5625 172.5625 C12.10548613 176.72640418 11.81481685 180.8812494 11.5625 185.0625 C10.558983 199.441017 10.558983 199.441017 7 203 C4.5 202.875 4.5 202.875 2 202 C0.14471874 199.10473408 -0.26165782 196.70678693 -0.4375 193.3125 C-0.80713365 188.292203 -1.58050081 183.44108104 -2.5 178.5 C-3.39077473 173.68791446 -4.18135849 168.94804119 -4.5625 164.0625 C-5.3891856 152.64175773 -5.3891856 152.64175773 -11 143 C-14.94234877 140.48798185 -18.74061874 139.6266142 -23.375 140.25 C-29.55745175 141.99376844 -33.54128539 146.60656672 -38 151 C-39.9849112 152.84995594 -41.99302052 154.67404847 -44 156.5 C-45.01853522 157.43456239 -46.03676696 158.36945564 -47.0546875 159.3046875 C-52.13271204 163.95168608 -57.25830037 168.54548331 -62.38671875 173.13671875 C-66.06107012 176.43239301 -69.72443977 179.73766233 -73.34375 183.09375 C-73.91891357 183.62701904 -74.49407715 184.16028809 -75.08666992 184.7097168 C-76.20813475 185.75122431 -77.32817216 186.7942717 -78.4465332 187.83911133 C-81.52960038 190.70397601 -84.6751908 193.41267158 -88 196 C-89.9375 195.25 -89.9375 195.25 -92 194 C-92.75 191.875 -92.75 191.875 -93 190 C-92.34 190 -91.68 190 -91 190 C-91 189.34 -91 188.68 -91 188 C-90.34 188 -89.68 188 -89 188 C-88.76410156 187.44441406 -88.52820313 186.88882813 -88.28515625 186.31640625 C-86.6872248 183.43624409 -84.694995 181.33630924 -82.4375 178.9375 C-79.0046517 175.24636541 -75.72061908 171.49589741 -72.5625 167.5625 C-69.34056252 163.56775211 -65.99338154 159.75452374 -62.5 156 C-58.15550143 151.32938095 -54.05803058 146.51654193 -50.078125 141.52734375 C-48.14494912 139.1762821 -46.10545771 137.00782481 -44 134.8125 C-39.77487777 130.02989637 -39.81788479 126.09595849 -40.1875 119.8125 C-41.60357096 114.9107159 -43.82497693 112.65530133 -48.25 110.1875 C-51.66269817 109.10681225 -54.12821103 108.87441694 -57.6640625 109.0234375 C-60.51845164 108.99479814 -63.1860858 108.5419076 -66 108.0625 C-72.43660723 106.98973213 -78.76433804 106.60463575 -85.2734375 106.34375 C-94.50808314 105.49191686 -94.50808314 105.49191686 -97 103 C-97.375 100.625 -97.375 100.625 -97 98 C-93.48081508 94.71542741 -89.75569556 94.64169134 -85.1875 94.30859375 C-80.40574245 93.84565399 -75.70312654 92.979812 -70.97265625 92.15405273 C-67.23763118 91.51122136 -63.51757658 90.91704881 -59.75 90.5 C-50.20488119 89.53113229 -50.20488119 89.53113229 -42 85 C-39.1652257 80.42457481 -38.83748913 75.28547247 -39 70 C-40.34289975 66.77427908 -40.34289975 66.77427908 -43 64 C-44.37625483 62.23014172 -45.75115741 60.45923142 -47.125 58.6875 C-49.64396374 55.33136175 -49.64396374 55.33136175 -53 53 C-53.3125 50.6875 -53.3125 50.6875 -53 48 C-50.75 46.0625 -50.75 46.0625 -48 45 C-43.2278535 46.70202968 -39.09230949 50.47696939 -35.04492188 53.45507812 C-29.80239188 57.26528403 -26.50411141 58.44095671 -20 58 C-15.85747489 56.40672111 -13.17322798 54.91181037 -11 51 C-9.32316938 45.96950813 -8.67560447 41.26568679 -8.5 36 C-8.18847689 29.03321044 -7.45481206 22.26584839 -6.40234375 15.3671875 C-5.91646254 11.93929011 -5.91646254 11.93929011 -6.05859375 8.21875 C-6 5 -6 5 -4.125 2.625 C-2 1 -2 1 0 0 Z " fill="#FDFDFB" transform="translate(177,77)"/>
<path d="M0 0 C0.495 1.485 0.495 1.485 1 3 C0.34 3.99 -0.32 4.98 -1 6 C-1.66 6 -2.32 6 -3 6 C-3.103125 6.598125 -3.20625 7.19625 -3.3125 7.8125 C-4.10503854 10.33421352 -4.91591409 11.39685699 -7 13 C-7.99 13 -8.98 13 -10 13 C-10 13.99 -10 14.98 -10 16 C-9.01 16.33 -8.02 16.66 -7 17 C-6.505 18.485 -6.505 18.485 -6 20 C-4.02 20 -2.04 20 0 20 C-4.82888764 25.97257155 -10.2368031 30.9390054 -16 36 C-17.6066182 37.43475953 -19.21079 38.8722632 -20.8125 40.3125 C-21.6271875 41.0446875 -22.441875 41.776875 -23.28125 42.53125 C-25.31219349 44.37544006 -27.33226152 46.22855159 -29.34375 48.09375 C-29.91891357 48.62701904 -30.49407715 49.16028809 -31.08666992 49.7097168 C-32.20813475 50.75122431 -33.32817216 51.7942717 -34.4465332 52.83911133 C-37.52960038 55.70397601 -40.6751908 58.41267158 -44 61 C-45.9375 60.25 -45.9375 60.25 -48 59 C-48.75 56.875 -48.75 56.875 -49 55 C-48.34 55 -47.68 55 -47 55 C-47 54.34 -47 53.68 -47 53 C-46.34 53 -45.68 53 -45 53 C-44.76410156 52.44441406 -44.52820313 51.88882813 -44.28515625 51.31640625 C-42.6872248 48.43624409 -40.694995 46.33630924 -38.4375 43.9375 C-35.0046517 40.24636541 -31.72061908 36.49589741 -28.5625 32.5625 C-24.90923511 28.03296699 -21.06411339 23.75346743 -17.1015625 19.49829102 C-13.19555777 15.27801795 -9.55477763 10.87441227 -5.97265625 6.375 C-4.09147784 4.1101357 -2.11586019 2.04485817 0 0 Z " fill="#FBF7F0" transform="translate(133,212)"/>
<path d="M0 0 C1.05380859 0.47953125 1.05380859 0.47953125 2.12890625 0.96875 C5.19824236 2.07120542 7.68762704 2.33607198 10.9375 2.5 C16.9310536 2.8741719 22.78345765 3.64676077 28.7109375 4.59765625 C32.17457367 5.02135521 35.51324784 5.0039133 39 5 C41.11075911 5.23933819 43.21661652 5.52879307 45.3125 5.875 C46.33988281 6.03742188 47.36726563 6.19984375 48.42578125 6.3671875 C51 7 51 7 53 9 C52.875 11.5 52.875 11.5 52 14 C47.45509202 17.45413006 40.61660327 18.01545568 35.0625 18.4375 C27.93189367 18.99364757 20.96347076 20.32838053 13.94287109 21.64892578 C12.25530052 21.95386754 10.55965547 22.21345081 8.86328125 22.46484375 C2.09808957 23.52664514 -0.57743772 25.90914468 -4.8125 31.3125 C-5.204375 31.869375 -5.59625 32.42625 -6 33 C-6 31.02 -6 29.04 -6 27 C-5.34 27 -4.68 27 -4 27 C-4 26.01 -4 25.02 -4 24 C-3.01 24 -2.02 24 -1 24 C-1 23.34 -1 22.68 -1 22 C5.73314672 20.40852896 12.49843843 19.18200177 19.32202148 18.0534668 C22.96604889 17.7154229 22.96604889 17.7154229 26 16 C27.85287502 15.92773498 29.70833878 15.9161878 31.5625 15.9375 C32.57441406 15.94652344 33.58632813 15.95554688 34.62890625 15.96484375 C35.41136719 15.97644531 36.19382812 15.98804688 37 16 C37 15.34 37 14.68 37 14 C40.3 13.67 43.6 13.34 47 13 C47 11.35 47 9.7 47 8 C38.42 8.33 29.84 8.66 21 9 C21 8.34 21 7.68 21 7 C20.43490723 6.93006836 19.86981445 6.86013672 19.28759766 6.78808594 C16.73057426 6.46089636 14.17818813 6.10583225 11.625 5.75 C10.73554688 5.64042969 9.84609375 5.53085938 8.9296875 5.41796875 C8.07890625 5.29550781 7.228125 5.17304688 6.3515625 5.046875 C5.56604004 4.94213867 4.78051758 4.83740234 3.97119141 4.72949219 C2 4 2 4 0.72802734 1.93457031 C0.48777832 1.29616211 0.2475293 0.65775391 0 0 Z " fill="#F9C7AF" transform="translate(226,161)"/>
<path d="M0 0 C0.7421875 2.17578125 0.7421875 2.17578125 1 5 C-0.5546875 7.54296875 -0.5546875 7.54296875 -2.875 10.1875 C-3.69613281 11.13625 -4.51726562 12.085 -5.36328125 13.0625 C-6.66845703 14.5165625 -6.66845703 14.5165625 -8 16 C-8.85980469 16.969375 -9.71960938 17.93875 -10.60546875 18.9375 C-12.72177266 21.30614539 -14.8525375 23.65962124 -17 26 C-17.61328125 24.171875 -17.61328125 24.171875 -18 22 C-16.1875 19.25 -16.1875 19.25 -14 17 C-13.34 17 -12.68 17 -12 17 C-12 16.34 -12 15.68 -12 15 C-11.01 15 -10.02 15 -9 15 C-9.66 14.34 -10.32 13.68 -11 13 C-11.78375 13.495 -12.5675 13.99 -13.375 14.5 C-16 16 -16 16 -18 16 C-18.28875 16.61875 -18.5775 17.2375 -18.875 17.875 C-20.65702012 21.241038 -22.68756231 22.39110169 -26 24 C-29.48920659 25.74460329 -31.59964786 27.6153277 -34 30.625 C-36.04464253 33.14107566 -36.70168905 33.90272469 -39.875 34.9375 C-40.57625 34.958125 -41.2775 34.97875 -42 35 C-38.37781658 30.56282531 -34.68077766 26.71320498 -30.32421875 23.00390625 C-27.56003143 20.62066575 -24.87250044 18.15886724 -22.1875 15.6875 C-21.42626831 14.9922522 -21.42626831 14.9922522 -20.6496582 14.28295898 C-18.05489012 11.90997994 -15.48794458 9.51543342 -12.9609375 7.0703125 C-12.47343018 6.60665283 -11.98592285 6.14299316 -11.48364258 5.6652832 C-10.13889018 4.38521569 -8.80541266 3.09333384 -7.47265625 1.80078125 C-4.67940526 -0.23348211 -3.37382644 -0.41644727 0 0 Z " fill="#FAE7D4" transform="translate(270,81)"/>
<path d="M0 0 C2.48257791 0.8499348 3.69956027 1.47220048 5.01171875 3.77734375 C6.64574918 9.00057397 7.45349872 13.95697913 7.7890625 19.421875 C8.00093658 22.01144703 8.44359274 24.46424232 9 27 C8.34 27.33 7.68 27.66 7 28 C5.32773882 20.01731928 3.71378027 12.13709505 3 4 C0.03 3.505 0.03 3.505 -3 3 C-3.01981934 3.73524902 -3.03963867 4.47049805 -3.06005859 5.22802734 C-3.1562499 8.61066627 -3.26554257 11.99276537 -3.375 15.375 C-3.4059375 16.53128906 -3.436875 17.68757813 -3.46875 18.87890625 C-3.67762652 25.0407637 -4.20248089 30.82634202 -5.55419922 36.84228516 C-6.35174776 40.70248996 -6.34958479 44.60353608 -6.4609375 48.53125 C-7 51 -7 51 -9.0390625 52.34375 C-9.68617188 52.5603125 -10.33328125 52.776875 -11 53 C-10.855625 52.443125 -10.71125 51.88625 -10.5625 51.3125 C-9.326979 46.23313588 -8.79401267 41.3438047 -8.5625 36.125 C-8.21076945 29.12533413 -7.45990013 22.29919938 -6.40234375 15.3671875 C-5.91646254 11.93929011 -5.91646254 11.93929011 -6.05859375 8.21875 C-6 5 -6 5 -4.125 2.625 C-2 1 -2 1 0 0 Z " fill="#F9D4AB" transform="translate(177,77)"/>
<path d="M0 0 C2.20984694 3.31477042 2.2066445 3.66175917 1.75 7.375 C1.64171875 8.33921875 1.5334375 9.3034375 1.421875 10.296875 C1.28265625 11.51890625 1.1434375 12.7409375 1 14 C0.65478869 17.54055568 0.3289491 21.08290095 0 24.625 C-0.48014574 29.73939287 -0.97205263 34.85244255 -1.51171875 39.9609375 C-1.58608154 40.66782715 -1.66044434 41.3747168 -1.73706055 42.10302734 C-2.09577871 44.69099402 -2.66286846 46.74798898 -4 49 C-5.875 50.0625 -5.875 50.0625 -8 50 C-10.77111133 47.84008705 -11.87838919 46.60888134 -12.57421875 43.125 C-12.61160156 42.09375 -12.64898437 41.0625 -12.6875 40 C-12.83986183 36.51744387 -13.00906728 33.35144725 -14 30 C-13.01 29.67 -12.02 29.34 -11 29 C-9.40587716 32.18824568 -9.89825265 35.62896662 -9.9375 39.125 C-9.94201172 39.87910156 -9.94652344 40.63320313 -9.95117188 41.41015625 C-9.96296501 43.27347127 -9.98090058 45.13674555 -10 47 C-8.35 47 -6.7 47 -5 47 C-4.90912109 45.10314453 -4.90912109 45.10314453 -4.81640625 43.16796875 C-4.73199096 41.50780129 -4.64734345 39.84764563 -4.5625 38.1875 C-4.52318359 37.35412109 -4.48386719 36.52074219 -4.44335938 35.66210938 C-4.40146484 34.85966797 -4.35957031 34.05722656 -4.31640625 33.23046875 C-4.26141968 32.12288208 -4.26141968 32.12288208 -4.20532227 30.99291992 C-4 29 -4 29 -3 26 C-2.79695955 24.26428616 -2.63541775 22.52354446 -2.5 20.78125 C-2.4175 19.76675781 -2.335 18.75226563 -2.25 17.70703125 C-2.1675 16.64871094 -2.085 15.59039062 -2 14.5 C-1.83676335 12.40597979 -1.67024343 10.31221221 -1.5 8.21875 C-1.4278125 7.28998047 -1.355625 6.36121094 -1.28125 5.40429688 C-1 3 -1 3 0 0 Z " fill="#F9CAB1" transform="translate(189,230)"/>
<path d="M0 0 C2.76307668 1.67264821 5.33887921 3.53118912 7.9375 5.44921875 C9.41476563 6.53589844 9.41476563 6.53589844 10.921875 7.64453125 C11.66953125 8.19882813 12.4171875 8.753125 13.1875 9.32421875 C10.09029155 10.20262871 8.28104597 10.31857281 5.1875 9.32421875 C5.1875 9.98421875 5.1875 10.64421875 5.1875 11.32421875 C4.1975 11.81921875 4.1975 11.81921875 3.1875 12.32421875 C3.5175 14.30421875 3.8475 16.28421875 4.1875 18.32421875 C1.62654032 15.83439684 -0.77455687 13.37191869 -3 10.57421875 C-4.61559077 8.24934487 -4.61559077 8.24934487 -6.8125 7.32421875 C-7.125 5.01171875 -7.125 5.01171875 -6.8125 2.32421875 C-2.87052445 -1.07026019 -2.87052445 -1.07026019 0 0 Z " fill="#FBEBD7" transform="translate(130.8125,122.67578125)"/>
<path d="M0 0 C0 0.66 0 1.32 0 2 C-6.50529789 7.3836948 -16.82720255 7.19480584 -24.8828125 7.75390625 C-26.9829331 7.77602105 -26.9829331 7.77602105 -28 9 C-35.6308957 10.03361631 -43.3128119 10.13619034 -51 10 C-48.0588746 8.35765736 -45.58869589 7.63654301 -42.25390625 7.21875 C-41.34012207 7.10007568 -40.42633789 6.98140137 -39.48486328 6.85913086 C-38.5204834 6.74061768 -37.55610352 6.62210449 -36.5625 6.5 C-34.57152358 6.24158562 -32.58063753 5.98247392 -30.58984375 5.72265625 C-29.14714111 5.53727295 -29.14714111 5.53727295 -27.67529297 5.34814453 C-18.8827792 4.20394626 -8.46192553 0 0 0 Z " fill="#FCE2C4" transform="translate(134,164)"/>
<path d="M0 0 C2.4375 0.75 2.4375 0.75 4.4375 2.75 C4.10778521 6.04714793 3.8148161 7.3726839 1.4375 9.75 C-1.0625 10 -1.0625 10 -3.5625 9.75 C-5.5625 7.75 -5.5625 7.75 -5.875 4.75 C-5.771875 3.76 -5.66875 2.77 -5.5625 1.75 C-2.5625 -0.25 -2.5625 -0.25 0 0 Z " fill="#F7C995" transform="translate(71.5625,172.25)"/>
<path d="M0 0 C2.3125 0.8125 2.3125 0.8125 3.3125 1.8125 C3.5625 4.75 3.5625 4.75 3.3125 7.8125 C0.3125 9.8125 0.3125 9.8125 -2.25 9.75 C-4.6875 8.8125 -4.6875 8.8125 -6 6.25 C-6.226875 5.445625 -6.45375 4.64125 -6.6875 3.8125 C-3.3755 -0.2355 -3.3755 -0.2355 0 0 Z " fill="#F8CDB1" transform="translate(183.6875,285.1875)"/>
<path d="M0 0 C0.70640625 0.32226562 1.4128125 0.64453125 2.140625 0.9765625 C5.17722964 2.06343465 7.53680752 2.26678367 10.75 2.375 C19.0814708 2.88196665 26.9469199 4.92645243 35 7 C35 7.33 35 7.66 35 8 C30.38 8.33 25.76 8.66 21 9 C21 8.34 21 7.68 21 7 C20.43490723 6.93006836 19.86981445 6.86013672 19.28759766 6.78808594 C16.73057426 6.46089636 14.17818813 6.10583225 11.625 5.75 C10.73554688 5.64042969 9.84609375 5.53085938 8.9296875 5.41796875 C8.07890625 5.29550781 7.228125 5.17304688 6.3515625 5.046875 C5.56604004 4.94213867 4.78051758 4.83740234 3.97119141 4.72949219 C2 4 2 4 0.72802734 1.93457031 C0.48777832 1.29616211 0.2475293 0.65775391 0 0 Z " fill="#FEF5E5" transform="translate(226,161)"/>
<path d="M0 0 C0.66 0.66 1.32 1.32 2 2 C1.67028521 5.29714793 1.3773161 6.6226839 -1 9 C-4.29714793 8.67028521 -5.6226839 8.3773161 -8 6 C-7.75 2.9375 -7.75 2.9375 -7 0 C-4.29393021 -1.35303489 -2.8671629 -0.7884698 0 0 Z " fill="#F9D8B1" transform="translate(180,65)"/>
<path d="M0 0 C2.5 0.25 2.5 0.25 4.5 2.25 C4.625 5.375 4.625 5.375 4.5 8.25 C2.52 8.91 0.54 9.57 -1.5 10.25 C-3.5625 8.5 -3.5625 8.5 -5.5 6.25 C-5.2786758 2.48748864 -3.89863462 0.38986346 0 0 Z " fill="#FCEFE2" transform="translate(290.5,167.75)"/>
<path d="M0 0 C0.33 0.66 0.66 1.32 1 2 C0.01 3.485 0.01 3.485 -1 5 C-1.66 5 -2.32 5 -3 5 C-3.268125 5.598125 -3.53625 6.19625 -3.8125 6.8125 C-4.98493467 8.97224808 -6.19369282 10.35790256 -8 12 C-8.66 11.67 -9.32 11.34 -10 11 C-10.226875 11.598125 -10.45375 12.19625 -10.6875 12.8125 C-12.50121296 15.83535493 -13.70094614 16.65344741 -17 18 C-20.68107781 18.24367698 -24.31688693 18.17415771 -28 18 C-27.67 17.34 -27.34 16.68 -27 16 C-25.989375 16.0825 -24.97875 16.165 -23.9375 16.25 C-16.73221091 15.79252133 -12.78191336 12.01517743 -8 7 C-5.36424463 4.63078169 -2.68562345 2.31243508 0 0 Z " fill="#FAC8A4" transform="translate(227,116)"/>
<path d="M0 0 C-3.0894116 2.05960774 -4.32207172 2.34145278 -7.89453125 2.7109375 C-8.85037109 2.82179687 -9.80621094 2.93265625 -10.79101562 3.046875 C-12.79292829 3.26427728 -14.79554511 3.4752976 -16.79882812 3.6796875 C-22.6175103 4.36745651 -26.52819266 5.11335646 -31 9 C-32.88568694 12.10014929 -32.88568694 12.10014929 -34 15 C-34.33 15 -34.66 15 -35 15 C-35 13.02 -35 11.04 -35 9 C-34.34 9 -33.68 9 -33 9 C-33 8.01 -33 7.02 -33 6 C-32.01 6 -31.02 6 -30 6 C-30 5.34 -30 4.68 -30 4 C-27.87625604 3.52044491 -25.75192055 3.04338887 -23.625 2.578125 C-21.93455771 2.20582521 -20.24672984 1.82133977 -18.5625 1.421875 C-12.31062638 0.01921105 -6.39504245 -0.21884176 0 0 Z " fill="#F7C7A4" transform="translate(255,179)"/>
<path d="M0 0 C0.66 0.33 1.32 0.66 2 1 C2.203125 2.8203125 2.203125 2.8203125 2.25 5.125 C2.64257107 9.95131492 4.35004616 12.23310477 7.72265625 15.58984375 C9 17 9 17 9 19 C8.01 19.33 7.02 19.66 6 20 C5.34 18.35 4.68 16.7 4 15 C2.02 15 0.04 15 -2 15 C-2.33 13.02 -2.66 11.04 -3 9 C-2.34 9 -1.68 9 -1 9 C-0.67 6.03 -0.34 3.06 0 0 Z " fill="#F7DAC6" transform="translate(219,195)"/>
<path d="M0 0 C2.76307668 1.67264821 5.33887921 3.53118912 7.9375 5.44921875 C9.41476563 6.53589844 9.41476563 6.53589844 10.921875 7.64453125 C11.66953125 8.19882813 12.4171875 8.753125 13.1875 9.32421875 C9.4375 10.41015625 9.4375 10.41015625 7.1875 9.63671875 C4.8409391 8.09678816 3.03490215 6.43553549 1.1875 4.32421875 C1.1875 3.66421875 1.1875 3.00421875 1.1875 2.32421875 C-0.1325 2.32421875 -1.4525 2.32421875 -2.8125 2.32421875 C-2.8125 4.96421875 -2.8125 7.60421875 -2.8125 10.32421875 C-4.8125 9.13671875 -4.8125 9.13671875 -6.8125 7.32421875 C-7.375 4.82421875 -7.375 4.82421875 -6.8125 2.32421875 C-2.87052445 -1.07026019 -2.87052445 -1.07026019 0 0 Z " fill="#F9DAB7" transform="translate(130.8125,122.67578125)"/>
<path d="M0 0 C2.48257791 0.8499348 3.69956027 1.47220048 5.01171875 3.77734375 C6.64574918 9.00057397 7.45349872 13.95697913 7.7890625 19.421875 C8.00093658 22.01144703 8.44359274 24.46424232 9 27 C8.34 27.33 7.68 27.66 7 28 C5.32773882 20.01731928 3.71378027 12.13709505 3 4 C0.03 3.505 0.03 3.505 -3 3 C-3.33 3.99 -3.66 4.98 -4 6 C-4.66 5.67 -5.32 5.34 -6 5 C-2.25 1.125 -2.25 1.125 0 0 Z " fill="#F5C48F" transform="translate(177,77)"/>
<path d="M0 0 C1.65 1.65 3.3 3.3 5 5 C4.1875 6.9375 4.1875 6.9375 3 9 C0 10 0 10 -2.04296875 9.00390625 C-2.75066406 8.52824219 -3.45835937 8.05257812 -4.1875 7.5625 C-4.90292969 7.08941406 -5.61835938 6.61632812 -6.35546875 6.12890625 C-6.89816406 5.75636719 -7.44085938 5.38382813 -8 5 C-5.35261084 3.5393715 -4.10551666 3 -1 3 C-0.67 2.01 -0.34 1.02 0 0 Z " fill="#F9E6D9" transform="translate(235,222)"/>
<path d="M0 0 C-7.11389522 7.66742597 -7.11389522 7.66742597 -12 9 C-13.5 7.6875 -13.5 7.6875 -15 6 C-15 5.01 -15 4.02 -15 3 C-14.34 3 -13.68 3 -13 3 C-13 2.34 -13 1.68 -13 1 C-12.34 1.33 -11.68 1.66 -11 2 C-11.33 3.32 -11.66 4.64 -12 6 C-10.68 6 -9.36 6 -8 6 C-8 5.01 -8 4.02 -8 3 C-7.34 3 -6.68 3 -6 3 C-6.33 2.01 -6.66 1.02 -7 0 C-3.98968256 -0.93423645 -3.13349732 -1.04449911 0 0 Z " fill="#F7D3B3" transform="translate(99,264)"/>
<path d="M0 0 C2.2280375 3.34205624 2.19870095 3.78986966 1.75 7.5625 C1.64300781 8.51898438 1.53601563 9.47546875 1.42578125 10.4609375 C1.28527344 11.62882813 1.14476562 12.79671875 1 14 C0.82515054 15.57533611 0.65209415 17.15087188 0.48046875 18.7265625 C-0.00260363 23.15225537 -0.49874813 27.57633058 -1 32 C-1.33 32 -1.66 32 -2 32 C-2.2071352 21.10238692 -2.15729044 10.72866761 0 0 Z " fill="#F8B091" transform="translate(189,230)"/>
<path d="M0 0 C0.99 0.33 1.98 0.66 3 1 C2.67 1.33 2.34 1.66 2 2 C0.98659208 8.00879241 0.39169336 13.32309732 3 19 C-0.06805879 16.95462747 -0.75108781 16.30490442 -2 13 C-2.265625 10.52734375 -2.265625 10.52734375 -2.25 7.9375 C-2.25515625 7.08027344 -2.2603125 6.22304687 -2.265625 5.33984375 C-2 3 -2 3 0 0 Z " fill="#F6C9A0" transform="translate(221,140)"/>
<path d="M0 0 C0.33 0.99 0.66 1.98 1 3 C0.01 4.485 0.01 4.485 -1 6 C-1.66 6 -2.32 6 -3 6 C-3.1546875 6.8971875 -3.1546875 6.8971875 -3.3125 7.8125 C-4.10503854 10.33421352 -4.91591409 11.39685699 -7 13 C-7.99 13 -8.98 13 -10 13 C-10 13.66 -10 14.32 -10 15 C-10.66 15 -11.32 15 -12 15 C-10.38462556 11.10082032 -7.72075127 8.28706228 -4.875 5.25 C-4.40707031 4.74339844 -3.93914062 4.23679688 -3.45703125 3.71484375 C-2.30873459 2.47280859 -1.15491328 1.23588506 0 0 Z " fill="#F9DABA" transform="translate(133,212)"/>
<path d="M0 0 C2.08326131 -0.02709444 4.16662441 -0.04643873 6.25 -0.0625 C7.41015625 -0.07410156 8.5703125 -0.08570313 9.765625 -0.09765625 C12.40977128 -0.01782092 14.49826091 0.21356222 17 1 C17 1.99 17 2.98 17 4 C15.96552734 3.73123047 15.96552734 3.73123047 14.91015625 3.45703125 C8.01321489 1.89599514 3.44270678 2.04112726 -3 5 C-3 4.34 -3 3.68 -3 3 C-2.34 3 -1.68 3 -1 3 C-0.67 2.01 -0.34 1.02 0 0 Z " fill="#FBE3CA" transform="translate(149,215)"/>
<path d="M0 0 C2.64 0 5.28 0 8 0 C5.01664332 2.9428062 3.4634017 3.9519791 -0.76953125 4.390625 C-2.11774585 4.36431837 -3.46569518 4.31701804 -4.8125 4.25 C-5.50537109 4.23195312 -6.19824219 4.21390625 -6.91210938 4.1953125 C-8.60867664 4.14851064 -10.30452476 4.07677624 -12 4 C-11.67 3.34 -11.34 2.68 -11 2 C-7.37 2 -3.74 2 0 2 C0 1.34 0 0.68 0 0 Z " fill="#FBD2BD" transform="translate(263,175)"/>
<path d="M0 0 C0 0.99 0 1.98 0 3 C-7.69118596 3.75166913 -15.27227893 4.13690844 -23 4 C-16.25933599 0.17117414 -7.62958521 -0.34679933 0 0 Z " fill="#F8CC8E" transform="translate(106,170)"/>
<path d="M0 0 C0 2 0 4 0 6 C-0.66 6 -1.32 6 -2 6 C-2.3403125 6.86625 -2.3403125 6.86625 -2.6875 7.75 C-4.36684391 10.62887527 -6.22790829 12.17447619 -9 14 C-9.99 13.67 -10.98 13.34 -12 13 C-8.04 8.71 -4.08 4.42 0 0 Z " fill="#FAD2B2" transform="translate(100,250)"/>
<path d="M0 0 C1.98 0 3.96 0 6 0 C2.32167983 4.52615993 -1.41086363 8.39424999 -6 12 C-6.66 11.01 -7.32 10.02 -8 9 C-6.68 9 -5.36 9 -4 9 C-4 7.35 -4 5.7 -4 4 C-2.35 4 -0.7 4 1 4 C0.67 2.68 0.34 1.36 0 0 Z " fill="#FADABF" transform="translate(140,220)"/>
<path d="M0 0 C4.95 0 9.9 0 15 0 C15 0.66 15 1.32 15 2 C17.97 2.495 17.97 2.495 21 3 C21.33 4.65 21.66 6.3 22 8 C21.113125 7.38125 20.22625 6.7625 19.3125 6.125 C14.97169434 3.34033222 12.02365714 1.88725568 6.875 2 C3 2 3 2 0 0 Z " fill="#F8BE87" transform="translate(114,184)"/>
<path d="M0 0 C0 4.23526645 -1.8834265 5.52209823 -4.6875 8.625 C-5.55761719 9.60726562 -6.42773438 10.58953125 -7.32421875 11.6015625 C-10.05724503 14.0513116 -11.40416426 14.7278827 -15 15 C-10.72226048 9.75976909 -6.16137595 5.36068517 -1 1 C-0.67 0.67 -0.34 0.34 0 0 Z " fill="#F8D4B4" transform="translate(243,101)"/>
<path d="M0 0 C1.32 0 2.64 0 4 0 C3.67 0.99 3.34 1.98 3 3 C2.01 3.33 1.02 3.66 0 4 C0 4.66 0 5.32 0 6 C-0.66 6 -1.32 6 -2 6 C-2 6.99 -2 7.98 -2 9 C-3.32 9 -4.64 9 -6 9 C-5.67 7.02 -5.34 5.04 -5 3 C-3.35 2.67 -1.7 2.34 0 2 C0 1.34 0 0.68 0 0 Z " fill="#FBF9F4" transform="translate(93,261)"/>
<path d="M0 0 C2.9375 0.75 2.9375 0.75 6 2 C6.875 4.125 6.875 4.125 7 6 C3.94736336 6.98120464 2.05263664 6.98120464 -1 6 C-1.042721 4.33388095 -1.04063832 2.66617115 -1 1 C-0.67 0.67 -0.34 0.34 0 0 Z " fill="#FBFBF7" transform="translate(128,124)"/>
<path d="M0 0 C3.39352169 0.45246956 6.69503191 1.1102009 10 2 C10 2.66 10 3.32 10 4 C9.35933594 3.96519531 8.71867187 3.93039063 8.05859375 3.89453125 C2.16635234 3.71012429 -1.76664555 4.2695542 -7 7 C-7.33 6.01 -7.66 5.02 -8 4 C-6.865625 3.525625 -5.73125 3.05125 -4.5625 2.5625 C-1.24259834 1.36377917 -1.24259834 1.36377917 0 0 Z " fill="#F7D2B6" transform="translate(202,211)"/>
<path d="M0 0 C0.33 0 0.66 0 1 0 C1.19620767 2.06168985 1.38160753 4.12440998 1.5625 6.1875 C1.66691406 7.33605469 1.77132812 8.48460937 1.87890625 9.66796875 C1.98859985 12.68631199 1.74002389 15.08923936 1 18 C0.34 18 -0.32 18 -1 18 C-1.02698422 15.56242587 -1.04683099 13.12515085 -1.0625 10.6875 C-1.07087891 9.99720703 -1.07925781 9.30691406 -1.08789062 8.59570312 C-1.10307906 5.4516975 -1.00193327 3.00579981 0 0 Z " fill="#FBCDB1" transform="translate(186,256)"/>
<path d="M0 0 C0.68964844 0.3196875 1.37929687 0.639375 2.08984375 0.96875 C6.3324626 2.47217467 10.4747094 2.44969754 14.94140625 2.65625 C17.82205294 2.98000084 19.54938066 3.51404988 22 5 C19.43721301 5.05420701 16.87558517 5.09377007 14.3125 5.125 C13.59126953 5.14175781 12.87003906 5.15851563 12.12695312 5.17578125 C7.99444537 5.21352105 4.62352873 5.09236267 1 3 C0.67 2.01 0.34 1.02 0 0 Z " fill="#FAAB89" transform="translate(226,161)"/>
<path d="M0 0 C0.33 0 0.66 0 1 0 C1 5.28 1 10.56 1 16 C-0.98 16.99 -0.98 16.99 -3 18 C-2.855625 17.443125 -2.71125 16.88625 -2.5625 16.3125 C-1.24717978 10.90507243 -0.56615785 5.52907344 0 0 Z " fill="#F5B785" transform="translate(169,112)"/>
<path d="M0 0 C1.32 0.33 2.64 0.66 4 1 C1.03 4.3 -1.94 7.6 -5 11 C-5.33 9.68 -5.66 8.36 -6 7 C-4.1875 4.25 -4.1875 4.25 -2 2 C-1.34 2 -0.68 2 0 2 C0 1.34 0 0.68 0 0 Z " fill="#F7D8BD" transform="translate(258,96)"/>
<path d="M0 0 C0.33 0.66 0.66 1.32 1 2 C0.01 3.485 0.01 3.485 -1 5 C-1.66 5 -2.32 5 -3 5 C-3.268125 5.598125 -3.53625 6.19625 -3.8125 6.8125 C-4.98493467 8.97224808 -6.19369282 10.35790256 -8 12 C-8.33 10.68 -8.66 9.36 -9 8 C-6.03 5.36 -3.06 2.72 0 0 Z " fill="#F9E0C7" transform="translate(227,116)"/>
<path d="M0 0 C0.99 0 1.98 0 3 0 C1.63629701 2.99220268 0.05091917 5.29026529 -2.125 7.75 C-2.93324219 8.67039062 -2.93324219 8.67039062 -3.7578125 9.609375 C-4.16773438 10.06828125 -4.57765625 10.5271875 -5 11 C-5.66 9.68 -6.32 8.36 -7 7 C-5.37660195 5.29115995 -3.70680947 3.62553283 -2 2 C-1.34 2 -0.68 2 0 2 C0 1.34 0 0.68 0 0 Z " fill="#F9DABE" transform="translate(247,109)"/>
<path d="M0 0 C1.32 0.33 2.64 0.66 4 1 C2.54782324 2.50596108 1.08807139 4.00462104 -0.375 5.5 C-1.18710938 6.3353125 -1.99921875 7.170625 -2.8359375 8.03125 C-5 10 -5 10 -7 10 C-6.61402985 7.20171644 -6.19863427 6.1794116 -4.0625 4.25 C-2 3 -2 3 0 3 C0 2.01 0 1.02 0 0 Z " fill="#F7D8BA" transform="translate(109,250)"/>
<path d="M0 0 C1.67542976 0.28604898 3.34385343 0.61781233 5 1 C5 2.65 5 4.3 5 6 C3.35 6 1.7 6 0 6 C-0.38218767 4.34385343 -0.71395102 2.67542976 -1 1 C-0.67 0.67 -0.34 0.34 0 0 Z " fill="#FDF9F1" transform="translate(69,174)"/>
<path d="M0 0 C0.78375 0.04125 1.5675 0.0825 2.375 0.125 C1.055 0.455 -0.265 0.785 -1.625 1.125 C-1.625 3.435 -1.625 5.745 -1.625 8.125 C0.025 8.125 1.675 8.125 3.375 8.125 C1.395 9.115 1.395 9.115 -0.625 10.125 C-2.275 8.805 -3.925 7.485 -5.625 6.125 C-4.86443086 2.32215429 -4.27658992 0.20364714 0 0 Z " fill="#F7BCA0" transform="translate(290.625,167.875)"/>
<path d="M0 0 C3 1 3 1 4.25 3.25 C5.07700926 6.28236729 4.85394079 8.01120724 4 11 C3.01 11 2.02 11 1 11 C1.020625 9.9275 1.04125 8.855 1.0625 7.75 C1.0142016 4.85209576 0.86844115 2.71387859 0 0 Z " fill="#F9CAA6" transform="translate(136,192)"/>
<path d="M0 0 C0.66 0.33 1.32 0.66 2 1 C2 2.32 2 3.64 2 5 C4.31 5.33 6.62 5.66 9 6 C8.67 6.99 8.34 7.98 8 9 C6.68647977 8.69181644 5.37420428 8.37832335 4.0625 8.0625 C2.96615234 7.80146484 2.96615234 7.80146484 1.84765625 7.53515625 C0 7 0 7 -1 6 C-1.125 3.5 -1.125 3.5 -1 1 C-0.67 0.67 -0.34 0.34 0 0 Z " fill="#F7C694" transform="translate(81,174)"/>
<path d="M0 0 C-1.98 0.99 -1.98 0.99 -4 2 C-4 4.64 -4 7.28 -4 10 C-6 8.8125 -6 8.8125 -8 7 C-8.5625 4.5 -8.5625 4.5 -8 2 C-3.92125984 -1.30708661 -3.92125984 -1.30708661 0 0 Z " fill="#F8D396" transform="translate(132,123)"/>
<path d="M0 0 C1.65 1.65 3.3 3.3 5 5 C4.1875 6.9375 4.1875 6.9375 3 9 C2.01 9.33 1.02 9.66 0 10 C-0.66 9.34 -1.32 8.68 -2 8 C-1.01 8 -0.02 8 1 8 C0.67 5.36 0.34 2.72 0 0 Z " fill="#FAD0B2" transform="translate(235,222)"/>
<path d="M0 0 C0.66 0 1.32 0 2 0 C2.625 2.375 2.625 2.375 3 5 C2.34 5.66 1.68 6.32 1 7 C0.01 7 -0.98 7 -2 7 C-2.33 5.68 -2.66 4.36 -3 3 C-2.34 3 -1.68 3 -1 3 C-0.67 2.01 -0.34 1.02 0 0 Z " fill="#FDFBF0" transform="translate(177,65)"/>
<path d="M0 0 C0.33 0.99 0.66 1.98 1 3 C2.65 3 4.3 3 6 3 C6 2.01 6 1.02 6 0 C6.66 0 7.32 0 8 0 C7.67 1.65 7.34 3.3 7 5 C5.25 5.75 5.25 5.75 3 6 C0.75 4.0625 0.75 4.0625 -1 2 C-0.67 1.34 -0.34 0.68 0 0 Z " fill="#F7C1A1" transform="translate(178,274)"/>
<path d="M0 0 C1.51953125 1.17578125 1.51953125 1.17578125 3 3 C3.07421875 5.48046875 3.07421875 5.48046875 2.6875 8.1875 C2.56761719 9.08855469 2.44773438 9.98960937 2.32421875 10.91796875 C2.21722656 11.60503906 2.11023438 12.29210937 2 13 C0.00203045 10.00304568 -0.34510261 8.82142616 -0.6875 5.375 C-0.77386719 4.57835937 -0.86023438 3.78171875 -0.94921875 2.9609375 C-0.96597656 2.31382812 -0.98273438 1.66671875 -1 1 C-0.67 0.67 -0.34 0.34 0 0 Z " fill="#F7C5A2" transform="translate(172,230)"/>
<path d="M0 0 C0.33 0 0.66 0 1 0 C1.05410687 1.77049689 1.09284119 3.54146849 1.125 5.3125 C1.14820313 6.29863281 1.17140625 7.28476563 1.1953125 8.30078125 C1 11 1 11 -1 14 C-1.66 14 -2.32 14 -3 14 C-2.69249629 11.85344499 -2.3788634 9.70776715 -2.0625 7.5625 C-1.88847656 6.36753906 -1.71445313 5.17257813 -1.53515625 3.94140625 C-1 1 -1 1 0 0 Z " fill="#F3B88C" transform="translate(139,148)"/>
<path d="M0 0 C1.875 0.25 1.875 0.25 4 1 C6.15809084 4.23713626 6.21606256 6.92537239 6.125 10.75 C6.10695312 11.73484375 6.08890625 12.7196875 6.0703125 13.734375 C6.03550781 14.85585937 6.03550781 14.85585937 6 16 C5.67 16 5.34 16 5 16 C4.96132812 15.12988281 4.96132812 15.12988281 4.921875 14.2421875 C4.51221178 8.60000772 3.45949203 5.46386068 0 1 C0 0.67 0 0.34 0 0 Z " fill="#FDE5C9" transform="translate(135,141)"/>
<path d="M0 0 C0.33 0 0.66 0 1 0 C1.66 4.62 2.32 9.24 3 14 C2.01 14.33 1.02 14.66 0 15 C0 10.05 0 5.1 0 0 Z " fill="#F8C699" transform="translate(185,106)"/>
<path d="M0 0 C0.66 0.33 1.32 0.66 2 1 C1.67 2.32 1.34 3.64 1 5 C2.32 5.33 3.64 5.66 5 6 C3.02 6.99 3.02 6.99 1 8 C-0.5 6.6875 -0.5 6.6875 -2 5 C-2 4.01 -2 3.02 -2 2 C-1.34 2 -0.68 2 0 2 C0 1.34 0 0.68 0 0 Z " fill="#F7AD7E" transform="translate(86,265)"/>
<path d="M0 0 C-2.64 1.98 -5.28 3.96 -8 6 C-8 2 -8 2 -6.25 0.1875 C-4 -1 -4 -1 0 0 Z " fill="#F9DCB3" transform="translate(128,238)"/>
<path d="M0 0 C0.66 0.33 1.32 0.66 2 1 C2 4.96 2 8.92 2 13 C-0.21279137 8.57441726 -0.60155317 5.86105133 -1 1 C-0.67 0.67 -0.34 0.34 0 0 Z " fill="#F3B282" transform="translate(174,245)"/>
<path d="M0 0 C0.33 0.66 0.66 1.32 1 2 C0.3125 4.0625 0.3125 4.0625 -1 6 C-3.125 6.75 -3.125 6.75 -5 7 C-5 7.66 -5 8.32 -5 9 C-5.66 8.67 -6.32 8.34 -7 8 C-4.69 5.36 -2.38 2.72 0 0 Z " fill="#F7D5AE" transform="translate(120,227)"/>
<path d="M0 0 C1.94268841 2.91403262 3.46395304 5.85808576 5 9 C3.68 9.33 2.36 9.66 1 10 C0.67 6.7 0.34 3.4 0 0 Z " fill="#F7D7BA" transform="translate(187,121)"/>
<path d="M0 0 C1.98 0.495 1.98 0.495 4 1 C4 2.32 4 3.64 4 5 C2.35 5 0.7 5 -1 5 C-0.67 3.35 -0.34 1.7 0 0 Z " fill="#FBF8F5" transform="translate(182,287)"/>
<path d="M0 0 C1.32 0 2.64 0 4 0 C4 0.66 4 1.32 4 2 C5.65 2.33 7.3 2.66 9 3 C9 3.99 9 4.98 9 6 C5.56404834 4.47291037 2.88087546 2.40072955 0 0 Z " fill="#F5CBB0" transform="translate(212,215)"/>
<path d="M0 0 C0.99 0.66 1.98 1.32 3 2 C2.25 6.75 2.25 6.75 0 9 C-2.125 8.625 -2.125 8.625 -4 8 C-3.01 8 -2.02 8 -1 8 C-0.67 5.36 -0.34 2.72 0 0 Z " fill="#F5CC91" transform="translate(179,65)"/>
<path d="M0 0 C0.33 1.32 0.66 2.64 1 4 C-1.475 5.485 -1.475 5.485 -4 7 C-4 4 -4 4 -2 1.8125 C-1.34 1.214375 -0.68 0.61625 0 0 Z " fill="#FAD5B4" transform="translate(106,243)"/>
<path d="M0 0 C0 0.66 0 1.32 0 2 C-3.20380017 4.13586678 -4.01939967 4.23132175 -7.6875 4.125 C-8.89986328 4.09792969 -8.89986328 4.09792969 -10.13671875 4.0703125 C-11.05904297 4.03550781 -11.05904297 4.03550781 -12 4 C-12 3.67 -12 3.34 -12 3 C-8.97265625 2.26757812 -8.97265625 2.26757812 -5.9453125 1.53515625 C-0.3649635 0 -0.3649635 0 0 0 Z " fill="#F7C99C" transform="translate(134,164)"/>
<path d="M0 0 C0.33 1.32 0.66 2.64 1 4 C-0.32 4.99 -1.64 5.98 -3 7 C-3.66 6.67 -4.32 6.34 -5 6 C-3.35 4.02 -1.7 2.04 0 0 Z " fill="#F8D8B4" transform="translate(112,236)"/>
<path d="M0 0 C0 2 0 4 0 6 C-0.66 6 -1.32 6 -2 6 C-2.33 6.66 -2.66 7.32 -3 8 C-3.75 6.25 -3.75 6.25 -4 4 C-2.0625 1.75 -2.0625 1.75 0 0 Z " fill="#F9DDC5" transform="translate(100,250)"/>
<path d="M0 0 C1.32 0.33 2.64 0.66 4 1 C4.625 2.8125 4.625 2.8125 5 5 C4.01 6.485 4.01 6.485 3 8 C2.01 5.36 1.02 2.72 0 0 Z " fill="#F5CFA9" transform="translate(168,221)"/>
<path d="M0 0 C0.66 0.66 1.32 1.32 2 2 C1.54625 2.5775 1.0925 3.155 0.625 3.75 C-0.84451453 5.78471242 -1.91234415 7.74902529 -3 10 C-2.88637738 8.5199159 -2.75877092 7.04089926 -2.625 5.5625 C-2.55539063 4.73878906 -2.48578125 3.91507813 -2.4140625 3.06640625 C-2.27742187 2.38449219 -2.14078125 1.70257813 -2 1 C-1.34 0.67 -0.68 0.34 0 0 Z " fill="#F6C6AB" transform="translate(193,217)"/>
<path d="M0 0 C2.97 0.495 2.97 0.495 6 1 C3.06279492 2.52299523 0.0831351 3.80100302 -3 5 C-3 4.34 -3 3.68 -3 3 C-2.34 3 -1.68 3 -1 3 C-0.67 2.01 -0.34 1.02 0 0 Z " fill="#F9D1AF" transform="translate(149,215)"/>
<path d="M0 0 C2.475 0.495 2.475 0.495 5 1 C5.33 2.65 5.66 4.3 6 6 C3.96166576 4.7260411 1.96147874 3.38938077 0 2 C0 1.34 0 0.68 0 0 Z " fill="#F6D2B0" transform="translate(130,186)"/>
<path d="M0 0 C0.70125 0.309375 1.4025 0.61875 2.125 0.9375 C5.08936657 2.03302678 7.87698108 2.56422992 11 3 C11 3.33 11 3.66 11 4 C8.03 4 5.06 4 2 4 C1.34 2.68 0.68 1.36 0 0 Z " fill="#F5C9AB" transform="translate(226,161)"/>
</svg>
