<?xml version="1.0" encoding="UTF-8"?>
<svg version="1.1" xmlns="http://www.w3.org/2000/svg" width="460" height="326">
<path d="M0 0 C1.051875 0.01160156 1.051875 0.01160156 2.125 0.0234375 C2.82625 0.01570313 3.5275 0.00796875 4.25 0 C6.125 0.3984375 6.125 0.3984375 8.125 3.3984375 C8.61106873 5.54109192 8.61106873 5.54109192 8.94702148 8.05004883 C9.07733261 8.99145218 9.20764374 9.93285553 9.34190369 10.90278625 C9.47528641 11.91842148 9.60866913 12.9340567 9.74609375 13.98046875 C10.04480194 16.13087604 10.34363395 18.28126613 10.64257812 20.43164062 C11.10434056 23.82158077 11.56263642 27.21195375 12.01782227 30.6027832 C12.45999383 33.87580622 12.91497336 37.14686491 13.37109375 40.41796875 C13.56813148 41.93231255 13.56813148 41.93231255 13.76914978 43.47724915 C14.67135629 49.90502377 15.71143176 55.99568514 21.125 60.2109375 C25.98698876 63.75613764 30.29333023 63.96665148 36.125 63.3984375 C39.91595117 61.92417871 42.35145388 60.31066093 45.125 57.3984375 C45.785 57.3984375 46.445 57.3984375 47.125 57.3984375 C47.125 56.7384375 47.125 56.0784375 47.125 55.3984375 C48.41796875 54.09375 48.41796875 54.09375 50.3125 52.5234375 C54.17733818 49.24210064 57.9136045 45.85042577 61.625 42.3984375 C65.68454929 38.63227321 69.7791389 34.92621574 73.96875 31.3046875 C76.89740613 28.7155857 79.75890652 26.05641301 82.625 23.3984375 C86.79277053 19.53503133 90.97217516 15.69758705 95.2890625 12 C96.62259545 10.8367053 97.92640154 9.63905701 99.2109375 8.421875 C100.25121094 7.45121094 100.25121094 7.45121094 101.3125 6.4609375 C101.92480469 5.87441406 102.53710938 5.28789063 103.16796875 4.68359375 C105.62750417 3.06844973 107.2398269 3.15426914 110.125 3.3984375 C111.115 5.8734375 111.115 5.8734375 112.125 8.3984375 C107.0267471 14.73810895 101.82732103 20.8925454 96.3359375 26.89453125 C93.30824726 30.32341719 90.52451575 33.92432591 87.75390625 37.5625 C86.94759766 38.47128906 86.94759766 38.47128906 86.125 39.3984375 C85.465 39.3984375 84.805 39.3984375 84.125 39.3984375 C83.83625 39.9965625 83.5475 40.5946875 83.25 41.2109375 C82.125 43.3984375 82.125 43.3984375 80.125 46.3984375 C79.465 46.3984375 78.805 46.3984375 78.125 46.3984375 C77.87878906 46.96433594 77.63257813 47.53023437 77.37890625 48.11328125 C75.90963776 50.79092008 74.14747565 52.72887362 72.0625 54.9609375 C59.80418698 67.20289553 59.80418698 67.20289553 53.8125 82.6484375 C54.2521609 87.92436828 55.7056567 92.08196832 59.60058594 95.8112793 C66.13101251 100.35556419 73.14356156 100.54482948 80.875 101.0859375 C82.25962812 101.19947145 83.64407046 101.31529316 85.02832031 101.43334961 C87.77728891 101.66532932 90.52671828 101.88720723 93.27734375 102.09863281 C98.48153413 102.50413699 103.67847878 102.96792664 108.875 103.4609375 C109.68291992 103.52821045 110.49083984 103.5954834 111.32324219 103.66479492 C114.99725823 104.0056539 116.99447982 104.31142405 120.125 106.3984375 C120.4375 109.3984375 120.4375 109.3984375 120.125 112.3984375 C117.64767951 114.87575799 116.37319306 114.87314235 112.94433594 115.38818359 C111.86271179 115.55530853 110.78108765 115.72243347 109.66668701 115.8946228 C108.49277405 116.06861603 107.31886108 116.24260925 106.109375 116.421875 C103.63666306 116.80693421 101.16400857 117.19236253 98.69140625 117.578125 C94.78384969 118.17807903 90.8756834 118.77333471 86.96630859 119.36132812 C83.19938016 119.93110761 79.43564778 120.51916084 75.671875 121.109375 C74.50605896 121.27931976 73.34024292 121.44926453 72.13909912 121.62435913 C66.1815758 122.56859044 61.73302572 123.3898699 57.125 127.3984375 C56.795 128.0584375 56.465 128.7184375 56.125 129.3984375 C55.465 129.3984375 54.805 129.3984375 54.125 129.3984375 C52.56389787 137.20394816 52.21192138 143.32173759 56.125 150.3984375 C57.83389449 152.4828534 59.49544869 154.36659046 61.375 156.2734375 C62.35765056 157.31304622 63.33811175 158.35472859 64.31640625 159.3984375 C64.79352051 159.90503906 65.27063477 160.41164062 65.76220703 160.93359375 C73.87592217 169.65489272 73.87592217 169.65489272 74.625 174.8984375 C74.125 177.3984375 74.125 177.3984375 73.125 178.3984375 C69.61112984 178.79774093 67.78501931 178.89548908 64.91015625 176.73046875 C63.99105469 175.96089844 63.07195312 175.19132813 62.125 174.3984375 C60.87557752 173.47986372 59.61850269 172.57164141 58.35546875 171.671875 C57.69482422 171.1975 57.03417969 170.723125 56.35351562 170.234375 C54.97622042 169.24852159 53.59593093 168.26683983 52.21289062 167.2890625 C50.48124521 166.04023054 48.79828865 164.72443983 47.125 163.3984375 C47.125 162.7384375 47.125 162.0784375 47.125 161.3984375 C46.50625 161.2540625 45.8875 161.1096875 45.25 160.9609375 C43.125 160.3984375 43.125 160.3984375 41.125 159.3984375 C34.42512034 158.60888939 29.43317795 159.04446281 23.78125 162.81640625 C14.57636945 171.60880394 16.41363252 190.14197354 15.5625 202.0859375 C15.43605094 203.82100035 15.30910054 205.55602674 15.18164062 207.29101562 C15.11973541 208.13391144 15.0578302 208.97680725 14.99404907 209.84524536 C14.75897959 213.01711678 14.51738492 216.18847592 14.27508545 219.35980225 C14.14348573 221.14734284 14.02952688 222.93616408 13.91845703 224.72509766 C13.85384277 225.61374512 13.78922852 226.50239258 13.72265625 227.41796875 C13.67761963 228.13702393 13.63258301 228.8560791 13.58618164 229.59692383 C12.98346312 231.95132297 12.01938847 232.91045763 10.125 234.3984375 C7.5625 234.7734375 7.5625 234.7734375 5.125 234.3984375 C3.15319493 231.44072989 2.76350142 230.22988867 2.28710938 226.84204102 C2.15357056 225.92000381 2.02003174 224.99796661 1.88244629 224.04798889 C1.74592651 223.05117599 1.60940674 222.0543631 1.46875 221.02734375 C1.32095093 219.99463852 1.17315186 218.96193329 1.02087402 217.89793396 C0.54837354 214.58657833 0.0863513 211.27386316 -0.375 207.9609375 C-0.8384927 204.68048213 -1.30415377 201.40034371 -1.77087402 198.12034607 C-2.06041857 196.08036505 -2.34776145 194.04006979 -2.63244629 191.99940491 C-3.0355201 189.13069578 -3.4543105 186.26461098 -3.875 183.3984375 C-4.02251709 182.32786102 -4.17003418 181.25728455 -4.32202148 180.15426636 C-4.47936768 179.09136383 -4.63671387 178.0284613 -4.79882812 176.93334961 C-5.00481628 175.49106239 -5.00481628 175.49106239 -5.21496582 174.01963806 C-6.44181967 169.14742068 -9.5210622 165.87090072 -13.7109375 163.25 C-18.26662374 161.45732924 -23.09531918 161.68240337 -27.875 162.3984375 C-31.71167893 164.33202609 -34.55033531 166.98264109 -37.46484375 170.09765625 C-38.875 171.3984375 -38.875 171.3984375 -40.875 171.3984375 C-40.875 172.0584375 -40.875 172.7184375 -40.875 173.3984375 C-42.44921875 174.94921875 -42.44921875 174.94921875 -44.5625 176.7109375 C-46.88103592 178.65396666 -49.07701248 180.60248026 -51.20703125 182.75390625 C-54.85656445 186.37137913 -58.77438368 189.62996992 -62.703125 192.9375 C-66.25920619 195.9524384 -69.60182906 199.0723882 -72.875 202.3984375 C-74.75822054 204.18267826 -76.65415536 205.95359421 -78.5625 207.7109375 C-79.51511719 208.59394531 -80.46773437 209.47695313 -81.44921875 210.38671875 C-83.875 212.3984375 -83.875 212.3984375 -85.875 212.3984375 C-85.875 213.0584375 -85.875 213.7184375 -85.875 214.3984375 C-90.34558824 218.3984375 -90.34558824 218.3984375 -92.875 218.3984375 C-93.1225 218.9965625 -93.37 219.5946875 -93.625 220.2109375 C-95.09465004 222.78282507 -96.30590159 223.93038127 -98.875 225.3984375 C-101.5625 225.6484375 -101.5625 225.6484375 -103.875 225.3984375 C-104.875 224.3984375 -104.875 224.3984375 -105.21484375 222.15625 C-104.74494954 218.34308553 -103.10721098 216.99597381 -100.4375 214.2734375 C-99.50800865 213.30308214 -98.58097799 212.33036456 -97.65625 211.35546875 C-97.18703125 210.86385254 -96.7178125 210.37223633 -96.234375 209.86572266 C-94.18663948 207.65543341 -92.31749274 205.31433421 -90.4375 202.9609375 C-86.77993736 198.42607589 -82.92882973 194.14307567 -78.96337891 189.88134766 C-75.17039718 185.78079104 -71.64885749 181.49794167 -68.1484375 177.14453125 C-64.88464609 173.20218527 -61.4237019 169.46026364 -57.94140625 165.7109375 C-55.76130363 163.38041059 -55.76130363 163.38041059 -53.875 160.3984375 C-53.215 160.3984375 -52.555 160.3984375 -51.875 160.3984375 C-51.648125 159.8828125 -51.42125 159.3671875 -51.1875 158.8359375 C-49.68678222 156.04889019 -47.89355144 153.61009802 -45.99609375 151.08203125 C-43.482159 147.30674945 -43.51433341 143.79856989 -43.875 139.3984375 C-45.56145661 134.04444572 -48.0012827 130.69281283 -52.72680664 127.48242188 C-56.85892543 125.39734318 -61.25788124 125.13972502 -65.8125 124.7109375 C-66.85140381 124.5962915 -67.89030762 124.48164551 -68.96069336 124.36352539 C-77.6026568 123.43850489 -86.27183976 122.72021386 -94.94311523 122.13208008 C-100.19751444 121.75067235 -104.87287381 121.07043807 -109.875 119.3984375 C-110.5 117.0859375 -110.5 117.0859375 -110.875 114.3984375 C-108.875 111.3984375 -108.875 111.3984375 -105.046875 110.328125 C-99.1074806 109.17864125 -93.11417725 108.36463088 -87.125 107.5234375 C-78.42426251 106.25156692 -69.72512314 104.97323651 -61.0625 103.4609375 C-60.21655273 103.32768066 -59.37060547 103.19442383 -58.49902344 103.05712891 C-52.91984862 102.0407676 -49.90015288 100.42359038 -45.875 96.3984375 C-43.0400985 92.24058197 -42.51403223 88.73140424 -42.37890625 83.83984375 C-43.89691773 76.3693148 -49.75393364 70.89907625 -54.8046875 65.56054688 C-57.46715326 62.60625913 -58.78066116 61.1257042 -59.3046875 57.0859375 C-58.875 54.3984375 -58.875 54.3984375 -57.75 52.4609375 C-55.875 51.3984375 -55.875 51.3984375 -53 51.4609375 C-49.44104059 52.52862532 -47.72111737 54.03506865 -44.875 56.3984375 C-43.0517749 57.78681293 -41.21822641 59.1617281 -39.375 60.5234375 C-37.99828125 61.54824219 -37.99828125 61.54824219 -36.59375 62.59375 C-31.66424025 65.86592457 -27.809696 67.00196591 -21.875 66.3984375 C-16.69139626 64.60261973 -12.67248274 62.24023456 -9.875 57.3984375 C-7.95316824 50.9922271 -7.38192556 44.41974264 -6.875 37.78125 C-6.70844061 35.7734286 -6.54177077 33.76561636 -6.375 31.7578125 C-6.12226017 28.62423349 -5.87239605 25.49045075 -5.625 22.35644531 C-5.38226283 19.30990416 -5.12913945 16.26435789 -4.875 13.21875 C-4.80410156 12.27814728 -4.73320312 11.33754456 -4.66015625 10.36843872 C-4.58667969 9.4967807 -4.51320313 8.62512268 -4.4375 7.72705078 C-4.37691406 6.96143829 -4.31632812 6.19582581 -4.25390625 5.40701294 C-3.72025545 2.57813934 -2.97505509 0.63219921 0 0 Z " fill="#FB7928" transform="translate(223.875,46.6015625)"/>
<path d="M0 0 C2 3 2 3 1.8125 5.5625 C1 8 1 8 -2 10 C-7.44444444 9.55555556 -7.44444444 9.55555556 -10 7 C-10.375 4.5625 -10.375 4.5625 -10 2 C-6.90683058 -1.56904164 -4.34457838 -1.32226299 0 0 Z " fill="#F75849" transform="translate(236,289)"/>
<path d="M0 0 C2.375 0.8125 2.375 0.8125 4.375 2.8125 C4.75 5.75 4.75 5.75 4.375 8.8125 C2.75 10.8125 2.75 10.8125 0.375 11.8125 C-2.875 11 -2.875 11 -5.625 9.8125 C-5.955 7.5025 -6.285 5.1925 -6.625 2.8125 C-4.2650337 0.62734602 -3.28118881 -0.23437063 0 0 Z " fill="#FCAD2E" transform="translate(226.625,30.1875)"/>
<path d="M0 0 C2.3431213 0.25561323 4.67843403 0.59270772 7 1 C8.43060128 3.86120256 8.38692581 5.84010585 8 9 C5.5 10.875 5.5 10.875 3 12 C-1.71076417 9.70501233 -1.71076417 9.70501233 -3 6.5625 C-3 3.39672243 -2.11378397 2.28288669 0 0 Z " fill="#FAB02C" transform="translate(99,156)"/>
<path d="M0 0 C1.875 1.6875 1.875 1.6875 3 4 C2.75925978 7.37036311 2.41201979 8.58798021 0 11 C-3 11.25 -3 11.25 -6 11 C-8 9 -8 9 -8.3125 6.0625 C-8 3 -8 3 -6.8125 1.125 C-4.31963619 -0.42229478 -2.88032665 -0.50405716 0 0 Z " fill="#F76254" transform="translate(361,151)"/>
<path d="M0 0 C1.9453125 -0.29296875 1.9453125 -0.29296875 4.125 -0.1875 C5.40375 -0.125625 6.6825 -0.06375 8 0 C8 0.33 8 0.66 8 1 C6.2984375 1.4640625 6.2984375 1.4640625 4.5625 1.9375 C1.21224901 2.62924531 1.21224901 2.62924531 0 4 C-0.36760731 6.32817964 -0.70241581 8.6618385 -1 11 C-1.33 11 -1.66 11 -2 11 C-2.25 3.375 -2.25 3.375 0 0 Z " fill="#F7C171" transform="translate(222,47)"/>
<path d="M0 0 C0.86625 0.3403125 0.86625 0.3403125 1.75 0.6875 C0.986875 1.1 0.22375 1.5125 -0.5625 1.9375 C-3.1866642 3.64625809 -4.55321976 5.09767753 -6.25 7.6875 C-6.5 5.375 -6.5 5.375 -6.25 2.6875 C-4.11319077 0.39806154 -3.15626895 -0.43837069 0 0 Z " fill="#F2A29A" transform="translate(232.25,288.3125)"/>
<path d="M0 0 C0.78375 0.04125 1.5675 0.0825 2.375 0.125 C1.611875 0.7025 0.84875 1.28 0.0625 1.875 C-2.28700917 3.84203093 -3.91823505 5.60976744 -5.625 8.125 C-4.59375 0.21875 -4.59375 0.21875 0 0 Z " fill="#F2D49A" transform="translate(101.625,155.875)"/>
<path d="M0 0 C-0.928125 0.433125 -1.85625 0.86625 -2.8125 1.3125 C-5.47184073 2.72038627 -7.08105905 3.76123556 -9 6 C-8.75 3.625 -8.75 3.625 -8 1 C-5.12800349 -1.17875597 -3.33791789 -1.19211353 0 0 Z " fill="#EEC37F" transform="translate(122,158)"/>
<path d="M0 0 C0.99 0.33 1.98 0.66 3 1 C2.21625 1.598125 1.4325 2.19625 0.625 2.8125 C-2.14574323 4.91085249 -2.14574323 4.91085249 -4 8 C-4.25 5.6875 -4.25 5.6875 -4 3 C-2.1875 1.125 -2.1875 1.125 0 0 Z " fill="#F6CC84" transform="translate(224,30)"/>
</svg>
